<?xml version="1.0" encoding="utf-8"?>
<!-- Generator: Adobe Illustrator 23.1.0, SVG Export Plug-In . SVG Version: 6.00 Build 0)  -->
<svg version="1.1" id="Layer_1" xmlns="http://www.w3.org/2000/svg" xmlns:xlink="http://www.w3.org/1999/xlink" x="0px" y="0px"
	 viewBox="0 0 64 64" style="enable-background:new 0 0 64 64;" xml:space="preserve">
<style type="text/css">
	.st0{fill:#FFFFFF;}
</style>
<g>
	<path class="st0" d="M9.4,28.5c0.8,0,1.5-0.3,2.1-0.9l7.5-7.5c0.4-0.4,0.4-1,0-1.4l-8.2-8.2c-0.4-0.4-1-0.4-1.4,0L1.9,18
		c-1.1,1.1-1.1,3,0,4.1l5.5,5.5C7.8,28.2,8.6,28.5,9.4,28.5z M10.1,12.6l6.8,6.8l-0.1,0.1H3.2c0,0,0-0.1,0.1-0.1L10.1,12.6z"/>
	<path class="st0" d="M17.2,26c0,1.4,1,2.5,2.4,2.6c1.4,0,2.5-1,2.6-2.4v-0.1c0-1.1-1.4-3.4-1.9-4.1c-0.3-0.3-0.7-0.4-1.1-0.2
		c-0.1,0-0.1,0.1-0.2,0.2C18.6,22.6,17.2,24.8,17.2,26z"/>
	<circle class="st0" cx="32.9" cy="25" r="5"/>
	<path class="st0" d="M54.8,30.8c-3.2,0-5.7-2.6-5.7-5.7s2.6-5.7,5.7-5.7c3.1,0,5.7,2.6,5.7,5.7S58,30.8,54.8,30.8z M54.8,20.7
		c-2.4,0-4.3,1.9-4.3,4.3s1.9,4.3,4.3,4.3c2.4,0,4.3-1.9,4.3-4.3C59.1,22.7,57.2,20.7,54.8,20.7L54.8,20.7z"/>
	<path class="st0" d="M46.3,54.9c-3.2,0-5.7-2.6-5.7-5.7s2.6-5.7,5.7-5.7c3.2,0,5.7,2.6,5.7,5.7C52,52.3,49.5,54.9,46.3,54.9z
		 M46.3,44.8c-2.4,0-4.3,1.9-4.3,4.3s1.9,4.3,4.3,4.3s4.3-1.9,4.3-4.3C50.6,46.8,48.7,44.8,46.3,44.8L46.3,44.8z"/>
	<circle class="st0" cx="22.8" cy="47.9" r="5"/>
	
		<rect x="18.6" y="33.9" transform="matrix(0.4375 -0.8992 0.8992 0.4375 -15.1714 44.559)" class="st0" width="18.8" height="1.1"/>
	<rect x="43.7" y="36.8" transform="matrix(0.4035 -0.915 0.915 0.4035 -3.2911 69.5532)" class="st0" width="15.9" height="1.1"/>
	
		<rect x="32.9" y="24.2" transform="matrix(0.9996 -2.670152e-02 2.670152e-02 0.9996 -0.6461 1.1131)" class="st0" width="16.9" height="1.1"/>
	<rect x="27.8" y="47.4" class="st0" width="13.6" height="1.1"/>
	<rect x="38.9" y="23.8" transform="matrix(0.8843 -0.4669 0.4669 0.8843 -11.6579 22.45)" class="st0" width="1.1" height="21.9"/>
	<path class="st0" d="M13.2,37l-1.9-1.6c-0.1-0.1-0.3-0.1-0.5,0c0,0.1-0.1,0.1-0.1,0.2v1h-0.5c-0.4,0-0.9-0.2-1.1-0.6L7,32.6
		c-0.5-0.8-1.3-1.2-2.2-1.2H3v1.3h1.8c0.4,0,0.9,0.2,1.1,0.6L8,36.7c0.5,0.8,1.3,1.2,2.2,1.2h0.5v1c0,0.1,0.1,0.2,0.2,0.3H11
		c0.1,0,0.1,0,0.2-0.1l1.9-1.6C13.3,37.4,13.3,37.2,13.2,37C13.2,37.1,13.2,37.1,13.2,37L13.2,37z"/>
	<path class="st0" d="M13.2,31.9l-1.9-1.6c-0.1-0.1-0.3-0.1-0.5,0c0,0.1-0.1,0.1-0.1,0.2v1h-0.5c-0.9,0-1.7,0.5-2.2,1.2l-0.1,0.2
		l0.8,1.2l0.5-0.7c0.2-0.4,0.7-0.6,1.1-0.6h0.5v1c0,0.1,0.1,0.2,0.2,0.3h0.1c0.1,0,0.1,0,0.2-0.1l1.9-1.6
		C13.3,32.2,13.3,32,13.2,31.9L13.2,31.9L13.2,31.9z"/>
	<path class="st0" d="M6.3,35.3L5.8,36c-0.2,0.4-0.7,0.6-1.1,0.6H2.9v1.3h1.8c0.9,0,1.7-0.5,2.2-1.2L7,36.5L6.3,35.3z"/>
	<path class="st0" d="M35.9,14.9h-0.6l0,0h-0.1l0,0l0,0l0,0l0,0l0,0l0,0l0,0l0,0l0,0H35l0,0h-0.4l0,0h-0.1l0,0l0,0l0,0h-0.2l0,0
		h-0.1l0,0l0,0l0,0l0,0l0,0l0,0l0,0l0,0l0,0l0,0l0,0l0,0l0,0l0,0l0,0l0,0l0,0l0,0l0,0l0,0l0,0l0,0l0,0l0,0l0,0l0,0l0,0l0,0
		c-0.1,0-0.2,0.1-0.3,0.1l0.4,0.9c0.6-0.1,1.2-0.1,1.8,0v-1H35.9z M31.7,16.5c-0.6,0.4-1.2,0.9-1.8,1.4l0.7,0.7
		c0.5-0.5,1.1-0.9,1.7-1.3C32.3,17.3,31.7,16.5,31.7,16.5z M28.3,19.5l-0.1,0.1l0,0l0,0l0,0l0,0l0,0l0,0l0,0l0,0l0,0l0,0l0,0l0,0
		l0,0l0,0l0,0l0,0l0,0l0,0l0,0l0,0l0,0l0,0c-0.4,0.5-0.9,1-1.3,1.5l0.8,0.6c0.5-0.6,1-1.1,1.4-1.6L28.3,19.5L28.3,19.5z M25.5,22.9
		L25.4,23l0,0l0,0l0,0l0,0c-0.4,0.6-0.8,1.1-1.2,1.7l0.8,0.5c0.4-0.6,0.8-1.2,1.3-1.8L25.5,22.9L25.5,22.9z M23,26.7
		c-0.2,0.4-0.5,0.8-0.7,1.2l0,0l0,0l0,0l0,0l0,0l0,0l0,0l0,0l0,0l0,0l0,0l0,0l0,0l0,0l0,0l0,0l0,0l0,0l0,0l0,0l0,0l0,0l0,0l0,0l0,0
		l0,0c-0.1,0.2-0.2,0.3-0.3,0.5l0.9,0.5c0.4-0.7,0.7-1.3,1.1-1.9L23,26.7L23,26.7z M20.8,30.7c-0.2,0.4-0.4,0.8-0.6,1.3l0,0l0,0l0,0
		l0,0l0,0l0,0l0,0l0,0l0,0l0,0l0,0l0,0l0,0l0,0l0,0l0,0l0,0l0,0l0,0l0,0l0,0l0,0l0,0l0,0l0,0l0,0l0,0l0,0l0,0l0,0l0,0l0,0l0,0l0,0
		l0,0l0,0l0,0l0,0l0,0l0,0l0,0l0,0l0,0l0,0l0,0l0,0l0,0l0,0l0,0l0,0l0,0l0,0l0,0l0,0l0,0l0,0l0,0l0,0l0,0l0,0l0,0l0,0l0,0l0,0l0,0
		l0,0l0,0l0,0l0,0l0,0l0,0l0,0l0,0l0,0l0,0v0.1l0,0l-0.1,0.1l0.9,0.4c0.3-0.7,0.6-1.4,0.9-2L21,30.2L20.8,30.7z M19,34.8
		c-0.1,0.1-0.1,0.3-0.2,0.4l0,0l0,0l0,0l0,0l0,0l0,0l0,0l0,0l0,0l0,0l0,0l0,0l0,0l0,0l0,0l0,0l0,0l0,0l0,0l0,0l0,0l0,0l0,0l0,0
		c-0.2,0.5-0.4,1-0.6,1.5l0.9,0.3c0.2-0.7,0.5-1.4,0.8-2.1L19,34.8L19,34.8z M17.5,39.1L17.5,39.1L17.5,39.1L17.5,39.1L17.5,39.1
		L17.5,39.1L17.5,39.1L17.5,39.1L17.5,39.1L17.5,39.1L17.5,39.1L17.5,39.1L17.5,39.1L17.5,39.1c-0.2,0.8-0.4,1.4-0.6,2.1l1,0.3
		c0.2-0.7,0.4-1.4,0.6-2.1L17.5,39.1L17.5,39.1z M16.4,43.4c-0.1,0.6-0.2,1.2-0.3,1.8l0,0l0,0l0,0l0,0l0,0l0,0c0,0.1,0,0.2-0.1,0.4
		l1,0.1c0.1-0.7,0.2-1.4,0.4-2.2L16.4,43.4L16.4,43.4z M15.7,47.9c-0.1,0.8-0.1,1.5-0.1,2.3h1c0-0.7,0-1.4,0.1-2.2L15.7,47.9z
		 M16.8,52.3l-1,0.1c0,0.1,0,0.1,0,0.2l0,0l0,0l0,0l0,0l0,0l0,0l0,0l0,0l0,0l0,0l0,0l0,0l0,0l0,0l0,0l0,0l0,0l0,0l0,0l0,0l0,0v0.1
		l0,0l0,0l0,0l0,0l0,0l0,0l0,0l0,0c0.1,0.6,0.2,1.2,0.4,1.8l0.9-0.3C17,53.6,16.8,52.9,16.8,52.3L16.8,52.3z M18.1,55.9l-0.8,0.6
		l0,0l0,0l0,0l0,0l0,0l0,0l0,0l0,0l0,0l0,0l0,0l0,0l0,0l0,0l0,0l0,0l0,0l0,0l0,0l0,0l0,0l0,0l0,0l0,0l0,0l0,0l0,0l0,0l0,0l0,0l0,0
		l0,0l0,0l0,0l0,0l0,0l0,0l0,0l0,0l0,0l0,0l0,0l0,0l0,0l0,0l0,0l0,0l0,0l0,0l0,0l0,0l0,0l0,0l0,0l0,0l0,0l0,0l0,0l0,0l0,0l0,0l0,0
		l0,0l0,0l0,0l0,0l0,0l0,0l0,0l0,0l0,0l0,0l0,0l0,0l0,0l0,0l0,0l0,0l0,0l0,0l0,0l0,0l0,0l0,0l0,0l0,0l0,0l0,0l0,0l0,0l0,0l0,0l0,0
		l0,0l0,0l0,0l0,0l0,0l0,0l0,0l0,0l0,0l0,0l0,0l0,0l0,0l0,0l0,0l0,0l0,0l0,0l0,0l0,0l0,0l0,0l0,0l0,0l0,0l0,0l0,0l0,0l0,0l0,0l0,0
		l0,0l0,0l0,0l0,0l0,0l0,0l0,0l0,0l0,0l0,0l0,0l0,0l0,0l0,0l0,0l0,0l0,0l0,0l0,0l0,0l0,0l0,0l0,0l0,0l0,0l0,0l0,0l0,0l0,0l0,0l0,0
		l0,0l0,0l0,0l0,0l0,0l0,0l0,0l0,0l0,0l0,0l0,0l0,0l0,0l0,0l0,0l0,0l0,0l0,0l0,0l0,0l0,0l0,0l0,0l0,0l0,0l0,0l0,0l0,0l0,0l0,0l0,0
		l0,0l0,0l0,0l0,0l0,0l0,0l0,0l0,0l0,0l0,0l0,0l0,0l0,0l0,0l0,0l0,0l0,0l0,0l0,0l0,0l0,0l0,0l0,0l0,0l0,0l0,0l0,0l0,0l0,0l0,0l0,0
		l0,0l0,0l0,0l0,0l0,0l0,0l0,0l0,0l0,0l0,0l0,0l0,0l0,0l0,0l0,0l0,0l0,0l0,0l0,0l0,0l0,0l0,0l0,0l0,0l0,0l0,0l0,0l0,0l0,0l0,0l0,0
		l0,0l0,0l0,0l0,0l0,0l0,0l0,0l0,0l0,0l0,0l0,0l0,0l0,0l0,0l0,0h0.1l0,0l0,0l0,0l0,0l0,0l0,0l0,0l0,0l0,0l0,0l0,0l0,0l0,0l0,0l0,0
		l0,0l0,0l0,0l0,0l0,0l0,0l0,0l0,0l0,0l0,0l0,0l0,0l0,0l0,0l0,0l0,0l0,0l0,0l0,0l0,0l0,0l0,0l0,0l0,0l0,0l0,0l0,0l0,0l0,0l0,0l0,0
		l0,0l0,0l0,0l0,0l0,0l0,0l0,0l0,0l0,0l0,0l0,0l0,0l0,0l0,0l0,0l0,0l0,0l0,0l0,0l0,0l0,0l0,0l0,0l0,0l0,0l0,0l0,0l0,0l0,0l0,0l0,0
		l0,0l0,0l0,0l0,0l0,0l0,0l0,0l0,0l0,0l0,0l0,0l0,0l0,0l0,0l0,0l0,0l0,0l0,0l0,0l0,0l0,0l0,0l0,0l0,0l0,0l0,0l0,0l0,0l0,0l0,0l0,0
		l0,0l0,0l0,0l0,0l0,0l0,0l0,0l0,0l0,0l0,0l0,0l0,0l0,0l0,0h0.5l0,0l0,0l0,0l0,0l0,0l0,0l0,0l0,0l0,0l0,0l0,0l0,0l0,0H18l0,0l0,0
		l0,0l0,0l0,0l0,0c0.2,0.1,0.3,0.1,0.5,0.2l0.3-1c-0.1,0-0.2-0.1-0.4-0.1c-0.4-0.2-0.7-0.4-1-0.8L18.1,55.9z M23.1,56.1
		c-0.6,0.3-1.2,0.6-1.8,0.8l0.2,1c0.6-0.2,1.2-0.4,1.8-0.7l0,0l0,0l0,0l0,0l0,0l0,0l0,0l0,0l0,0l0,0l0,0c0.1,0,0.2-0.1,0.3-0.1
		L23.1,56.1L23.1,56.1z M26.4,53.4c-0.5,0.5-1,1-1.6,1.4l0.6,0.8l0.1-0.1l0,0l0,0l0,0l0,0l0,0l0,0l0,0l0,0l0,0l0,0l0,0l0,0l0,0l0,0
		l0,0l0,0l0,0l0,0l0,0l0,0l0,0l0,0l0,0l0,0l0,0l0,0l0,0l0,0l0,0l0,0l0,0l0,0l0,0l0,0l0,0l0,0l0,0l0,0l0,0l0,0l0,0l0,0l0,0l0,0l0,0
		l0,0l0,0l0,0l0,0l0,0l0,0l0,0l0,0l0,0l0,0l0,0l0,0l0,0l0,0l0,0l0,0l0,0l0,0l0,0l0,0l0,0l0,0l0,0l0,0l0,0l0,0l0,0l0,0
		c0.2-0.2,0.5-0.4,0.7-0.6l0,0l0,0l0,0l0,0l0,0l0,0l0,0l0,0l0,0l0,0l0,0l0,0l0,0l0,0l0,0l0,0l0,0l0,0l0,0l0,0l0,0l0,0l0,0l0,0l0,0
		l0,0l0,0l0,0l0,0l0,0l0,0l0,0l0,0l0,0l0,0l0,0l0,0l0,0l0,0l0,0l0,0l0,0l0,0l0,0l0,0l0,0l0,0l0,0l0.3-0.3l-0.7-0.7L26.4,53.4z
		 M29.3,50.2c-0.5,0.6-0.9,1.2-1.4,1.7l0.7,0.7c0.3-0.4,0.6-0.7,1-1.1l0,0l0,0l0,0l0,0l0,0l0,0l0,0l0,0l0,0l0,0l0,0l0,0l0,0l0,0l0,0
		l0,0l0,0l0,0l0,0l0,0l0,0l0,0l0,0l0,0l0,0l0,0l0,0l0,0l0,0l0,0l0,0l0,0c0.1-0.1,0.2-0.3,0.4-0.5L29.3,50.2L29.3,50.2z M31.8,46.5
		c-0.4,0.6-0.8,1.3-1.2,1.9l0.8,0.6l0,0l0,0l0,0l0,0l0,0l0,0l0,0l0,0l0,0l0,0l0,0c0.1-0.2,0.2-0.4,0.4-0.5l0,0l0,0l0,0l0,0l0,0l0,0
		l0,0l0,0l0,0l0,0l0,0l0,0l0,0l0,0l0,0l0,0l0,0l0,0l0,0l0,0l0,0l0,0c0.3-0.4,0.5-0.8,0.7-1.2L31.8,46.5L31.8,46.5z M34,42.7
		c-0.3,0.7-0.7,1.3-1,2l0.9,0.5c0.3-0.5,0.5-1,0.8-1.5l0,0l0,0l0,0l0,0l0,0l0,0l0,0l0,0l0,0l0,0l0,0l0,0l0,0l0,0
		c0.1-0.1,0.1-0.3,0.2-0.4L34,42.7L34,42.7z M35.8,38.6c-0.1,0.3-0.3,0.7-0.4,1s-0.3,0.7-0.5,1l0.9,0.4c0-0.1,0.1-0.2,0.1-0.3l0,0
		l0,0l0,0l0,0l0,0l0,0l0,0l0,0l0,0l0,0l0,0l0,0l0,0l0,0l0,0l0,0l0,0l0,0l0,0l0,0l0,0l0,0l0,0l0,0l0,0l0,0l0,0l0,0l0,0l0,0l0,0l0,0
		l0,0l0,0l0,0l0,0l0,0l0,0l0,0l0,0l0,0l0,0l0,0l0,0l0,0l0,0l0,0l0,0l0,0l0,0l0,0l0,0l0,0l0,0l0,0l0,0l0,0l0,0l0,0l0,0l0,0l0,0l0,0
		l0,0l0,0l0,0l0,0l0,0l0,0l0,0l0,0l0,0l0,0l0,0l0,0l0,0l0,0l0,0l0,0l0,0l0,0l0,0l0,0l0,0l0,0l0,0l0,0l0,0l0,0l0,0l0,0l0,0l0,0l0,0
		l0,0l0,0l0,0l0,0l0,0l0,0c0.1-0.1,0.1-0.3,0.2-0.4l0,0l0,0l0,0l0,0l0,0l0,0l0,0l0,0l0,0l0,0l0,0l0,0l0,0l0,0l0,0l0,0l0,0l0,0l0,0
		l0,0c0.1-0.1,0.1-0.3,0.2-0.4l-0.9-0.4L35.8,38.6z M37.4,34.5c-0.2,0.7-0.5,1.4-0.7,2.1l0.9,0.3c0.1-0.2,0.1-0.3,0.2-0.5l0,0l0,0
		l0,0l0,0l0,0l0,0l0,0l0,0l0,0l0,0l0,0l0,0l0,0l0,0l0,0l0,0l0,0l0,0l0,0l0,0l0,0l0,0l0,0l0,0l0,0l0,0l0,0l0,0l0,0l0,0l0,0l0,0l0,0
		l0,0l0,0l0,0l0,0l0,0l0,0l0,0l0,0l0,0l0,0l0,0l0,0l0,0l0,0l0,0l0,0l0,0l0,0l0,0l0,0l0,0l0,0l0,0l0,0l0,0l0,0l0,0l0,0l0,0l0,0l0,0
		l0,0l0,0l0,0l0,0l0,0l0,0l0,0l0,0l0,0l0,0l0,0l0,0l0,0l0,0l0,0l0,0l0,0l0,0l0,0l0,0l0,0l0,0l0,0l0,0l0,0l0,0l0,0l0,0l0,0l0,0l0,0
		l0,0l0,0l0,0l0,0l0,0l0,0l0,0l0,0l0,0l0,0l0,0l0,0l0,0l0,0l0,0l0,0l0,0l0,0l0,0l0,0l0,0l0,0l0,0l0,0l0,0l0,0l0,0l0,0l0,0l0,0l0,0
		l0,0l0,0l0,0l0,0l0,0l0,0l0,0l0,0l0,0l0,0l0,0l0,0l0,0l0,0l0,0l0,0l0,0l0,0l0,0l0,0l0,0l0,0l0,0l0,0l0,0l0,0l0,0l0,0
		c0-0.1,0.1-0.3,0.1-0.4L37,35.7L37.4,34.5z M38.6,30.2c-0.2,0.7-0.3,1.4-0.6,2.1l1,0.3c0.2-0.7,0.4-1.5,0.6-2.2L38.6,30.2z
		 M39.3,25.9c-0.1,0.7-0.2,1.4-0.3,2.2l1,0.2c0.1-0.8,0.2-1.5,0.3-2.2L39.3,25.9z M40.5,21.5l-1,0.1c0,0.7,0.1,1.4,0,2.2h1
		c0-0.2,0-0.3,0-0.5l0,0l0,0l0,0v-0.1l0,0l0,0l0,0l0,0l0,0C40.5,22.6,40.5,22,40.5,21.5L40.5,21.5z M39.4,17.2l-0.9,0.5
		c0.3,0.6,0.5,1.2,0.7,1.9l1-0.2c-0.1-0.3-0.2-0.7-0.3-1l0,0l0,0l0,0l0,0l0,0l0,0l0,0l0,0l0,0l0,0l0,0l0,0l0,0l0,0l0,0l0,0l0,0l0,0
		l0,0l0,0l0,0l0,0l0,0l0,0l0,0l0,0l0,0l0,0v-0.1l0,0l0,0l0,0l0,0l0,0l0,0l0,0l0,0l0,0l0,0l0,0l0,0l0,0l0,0l0,0l0,0l0,0l0,0l0,0l0,0
		l0,0l0,0l0,0l0,0l0,0l0,0l0,0l0,0l0,0l0,0l0,0l0,0l0,0l0,0l0,0l0,0l0,0l0,0l0,0l0,0l0,0l0,0l0,0l0,0l0,0l0,0v-0.1l0,0
		C39.7,17.7,39.6,17.5,39.4,17.2L39.4,17.2z M35.9,14.9L35.9,14.9v1l0,0c0.4,0,0.8,0.1,1.1,0.2c0.1,0.1,0.2,0.1,0.3,0.2l0.5-0.8
		c0,0-0.1,0-0.1-0.1l0,0l0,0l0,0l0,0l0,0l0,0l0,0l0,0l0,0l0,0l0,0l0,0l0,0l0,0l0,0c-0.1,0-0.1-0.1-0.2-0.1l0,0l0,0l0,0l0,0l0,0l0,0
		l0,0l0,0l0,0l0,0l0,0l0,0l0,0l0,0l0,0l0,0C37,15.1,36.4,15,35.9,14.9L35.9,14.9z"/>
	<path class="st0" d="M57.5,14.9h-0.4c-0.3,0-0.6,0.1-0.9,0.1l0,0h-0.1l0,0l0,0l0,0l0,0l0,0l0,0l0,0l0,0l0,0l0,0l0,0l0,0l0,0l0,0H56
		l0,0l0,0l0,0l0,0l0,0l0,0l0,0l0,0c-0.2,0-0.3,0.1-0.5,0.2l0.3,0.9c0.6-0.2,1.2-0.4,1.9-0.4v-1L57.5,14.9z M53.3,16.3
		c-0.1,0-0.2,0.1-0.2,0.2l0,0l0,0l0,0l0,0l0,0l0,0l0,0l0,0l0,0l0,0l0,0l0,0l0,0l0,0l0,0l0,0l0,0l0,0l0,0l0,0l0,0l0,0l0,0l0,0l0,0
		l0,0l0,0l0,0l0,0l0,0l0,0l0,0l0,0l0,0l0,0l0,0l0,0l0,0l0,0l0,0l0,0l0,0l0,0l0,0l0,0l0,0l0,0l0,0l0,0l0,0l0,0l0,0l0,0l0,0l0,0l0,0
		l0,0l0,0l0,0l0,0l0,0l0,0l0,0l0,0l0,0l0,0l0,0l0,0l0,0l0,0l0,0l0,0l0,0l0,0l0,0l0,0l0,0l0,0l0,0l0,0l0,0l0,0l0,0l0,0l0,0l0,0l0,0
		l0,0l0,0l0,0l0,0l0,0l0,0l0,0l0,0l0,0l0,0l0,0l0,0l0,0l0,0l0,0l0,0l0,0l0,0l0,0l0,0l0,0l0,0l0,0l0,0l0,0l0,0l0,0l0,0l0,0l0,0l0,0
		l0,0l0,0l0,0l0,0l0,0l0,0l0,0l0,0l0,0l0,0l0,0l0,0l0,0l0,0l0,0l0,0l0,0l0,0l0,0l0,0l0,0l0,0l0,0l0,0l0,0l0,0l0,0l0,0l0,0l0,0l0,0
		l0,0l0,0l0,0l0,0l0,0l0,0l0,0l0,0l0,0l0,0l0,0l0,0l0,0l0,0l0,0l0,0l0,0l0,0l0,0l0,0l0,0l0,0l0,0l0,0l0,0l0,0l0,0l0,0l0,0l0,0l0,0
		l0,0l0,0l0,0l0,0l0,0l0,0l0,0l0,0l0,0l0,0l0,0l0,0l0,0l0,0l0,0l0,0l0,0l0,0l0,0l0,0l0,0l0,0l0,0l0,0l0,0l0,0l0,0l0,0l0,0l0,0l0,0
		l0,0l0,0l0,0l0,0c-0.3,0.2-0.5,0.4-0.8,0.6l0.6,0.8c0.5-0.5,1.1-0.9,1.7-1.2l-0.5-0.8L53.3,16.3z M49.8,19.1L49.8,19.1L49.8,19.1
		L49.8,19.1L49.8,19.1c-0.4,0.4-0.8,0.8-1.2,1.3l0,0l0,0l0,0l0,0l0,0l0,0l0,0l0,0l0,0l0,0l0,0l0,0l0,0l0,0l0,0l0,0l0,0l0,0l0,0l0,0
		l0,0l0,0l0,0l0,0l0,0l0,0l0,0l0,0l0,0l0,0l0,0l0,0l0,0l0,0l0,0l0,0l0,0l0,0l0,0l0,0l0,0l0,0l0,0l0,0l0,0l0,0l0,0l0,0l0,0l0,0l0,0
		l0,0l-0.1,0.1l0.8,0.6c0.5-0.6,1-1.1,1.5-1.6L49.8,19.1L49.8,19.1z M46.8,22.5c-0.2,0.2-0.3,0.4-0.5,0.6l0,0l0,0l0,0l0,0l0,0l0,0
		l0,0l0,0l0,0l0,0l0,0l0,0l0,0l0,0l0,0l0,0l0,0l0,0l0,0l0,0l0,0l0,0l0,0l0,0l0,0l0,0l0,0l0,0l0,0l0,0l0,0l0,0l0,0l0,0l0,0l0,0l0,0
		l0,0l0,0l0,0l0,0l0,0l0,0l0,0l0,0l0,0l0,0l0,0l0,0l0,0l0,0l0,0l0,0l0,0l0,0l0,0l0,0l0,0l0,0l0,0l0,0l0,0l0,0l0,0l0,0l0,0l0,0l0,0
		l0,0l0,0l0,0l0,0l0,0l0,0l0,0l0,0l0,0l0,0l0,0l0,0l0,0l0,0l0,0l0,0l0,0l0,0l0,0l0,0l0,0l0,0l0,0l0,0l0,0l0,0l0,0v0.1l0,0
		c-0.2,0.2-0.3,0.5-0.5,0.7l0.7,0.7c0.4-0.6,0.9-1.2,1.3-1.8L46.8,22.5L46.8,22.5z M44.3,26.3c-0.4,0.6-0.8,1.3-1.1,2l0.9,0.5
		c0.4-0.7,0.7-1.3,1.1-1.9L44.3,26.3z M42.1,30.2c-0.3,0.5-0.5,1-0.7,1.5l0,0l0,0l0,0l0,0l0,0l0,0l0,0l0,0l0,0l0,0l0,0l0,0l0,0l0,0
		l0,0l0,0l0,0l0,0l0,0l0,0l0,0l0,0l0,0l0,0l0,0l0,0l0,0l0,0l0,0l0,0L41.3,32l0.9,0.4c0.3-0.7,0.6-1.3,0.9-2L42.1,30.2L42.1,30.2z
		 M40.2,34.4c-0.1,0.3-0.2,0.6-0.3,0.9l0,0l0,0l0,0l0,0l0,0l0,0l0,0l0,0l0,0l0,0l0,0l0,0l0,0l0,0l0,0l0,0l0,0l0,0l0,0l0,0l0,0l0,0
		l0,0l0,0l0,0l0,0l0,0l0,0l0,0l0,0l0,0l0,0l0,0l0,0l0,0l0,0l0,0l0,0l0,0l0,0l0,0l0,0l0,0l0,0l0,0l0,0l0,0l0,0l0,0l0,0l0,0l0,0l0,0
		l0,0l0,0l0,0l0,0l0,0l0,0l0,0l0,0l0,0l0,0l0,0l0,0l0,0l0,0l0,0l0,0l0,0l0,0l0,0l0,0l0,0l0,0l0,0c0,0.1,0,0.1-0.1,0.2l0,0l0,0l0,0
		l0,0l0,0l0,0l0,0l0,0l0,0l0,0l0,0l0,0l0,0l0,0l0,0l0,0l0,0v0.1l0,0l0,0l0,0l0,0l0,0l0,0l0,0l0,0l0,0l0,0l0,0l0,0l0,0l0,0l0,0l0,0
		l0,0l0,0l0,0l0,0l0,0l0,0l0.9,0.3c0.2-0.7,0.5-1.4,0.8-2.1l-0.9-0.4L40.2,34.4z M38.8,38.6c-0.2,0.7-0.4,1.5-0.6,2.2l1,0.2
		c0.2-0.7,0.4-1.4,0.6-2.1C39.7,38.9,38.8,38.6,38.8,38.6z M37.7,43L37.7,43L37.7,43L37.7,43L37.7,43L37.7,43L37.7,43L37.7,43
		L37.7,43c-0.1,0.8-0.2,1.5-0.3,2.2l1,0.1c0.1-0.7,0.2-1.4,0.4-2.2L37.7,43L37.7,43z M37.1,47.5c0,0.8-0.1,1.5,0,2.3h1
		c0-0.7,0-1.4,0-2.2C38.1,47.5,37.1,47.5,37.1,47.5z M38.2,51.8l-1,0.2c0.1,0.7,0.3,1.5,0.5,2.2l0.9-0.3
		C38.5,53.2,38.3,52.5,38.2,51.8z M39.6,55.6l-0.8,0.6l0.1,0.1l0,0l0,0l0,0l0,0l0,0l0,0l0,0l0,0l0,0l0,0l0,0l0,0l0,0l0,0l0,0l0,0
		l0,0l0,0l0,0l0,0l0,0l0,0l0,0l0,0l0,0l0,0l0,0l0,0l0,0l0,0l0,0l0,0l0,0l0,0l0,0l0,0l0,0l0,0l0,0l0,0l0,0l0,0l0,0l0,0l0,0l0,0l0,0
		l0,0l0,0l0,0l0,0c0.4,0.5,0.9,0.9,1.5,1.2l0.4-0.9C40.4,56.4,39.9,56,39.6,55.6L39.6,55.6z M44.5,56.5c-0.6,0.2-1.2,0.4-1.9,0.4
		l0.1,1c0.7-0.1,1.5-0.2,2.1-0.5l0,0l0,0l0,0L44.5,56.5L44.5,56.5z M48.1,54.3c-0.5,0.5-1.1,0.9-1.7,1.3l0.5,0.8
		c0.1-0.1,0.3-0.2,0.4-0.3l0,0l0,0l0,0l0,0l0,0l0,0l0,0l0,0l0,0l0,0l0,0l0,0l0,0l0,0l0,0l0,0l0,0l0,0l0,0l0,0l0,0l0,0l0,0l0,0l0,0
		l0,0l0,0l0,0l0,0l0,0l0,0l0,0l0,0l0,0l0,0l0,0l0,0l0,0l0,0l0,0l0,0l0,0l0,0l0,0l0,0l0,0l0,0l0,0l0,0l0,0l0,0l0,0l0,0l0,0l0,0l0,0
		l0,0l0,0l0,0l0,0l0,0l0,0l0,0l0,0l0,0l0,0l0,0l0,0l0,0l0,0l0,0l0,0c0.4-0.3,0.7-0.5,1.1-0.8l-0.6-0.8L48.1,54.3z M51.1,51.2
		c-0.5,0.6-1,1.1-1.5,1.6l0.7,0.7c0.3-0.3,0.5-0.5,0.8-0.8l0,0l0,0l0,0l0,0l0,0l0,0l0,0l0,0l0,0l0,0l0,0l0,0l0,0l0,0l0,0l0,0l0,0
		l0,0l0,0l0,0l0,0l0,0l0,0l0,0l0,0l0,0l0,0l0,0l0,0l0,0l0,0l0,0l0,0l0,0l0,0l0,0l0,0l0,0l0,0l0,0l0,0l0,0l0,0l0,0l0,0l0,0l0,0l0,0
		c0.1-0.2,0.3-0.3,0.4-0.5l0,0l0,0l0,0l0,0l0,0l0.1-0.1l0,0l0,0l0,0l0,0l0,0l0,0l0,0l0,0l0,0l0,0l0,0l0,0l0,0l0,0l0,0l0,0L51.1,51.2
		L51.1,51.2z M53.8,47.7c-0.4,0.6-0.8,1.2-1.3,1.8l0.8,0.6c0.1-0.2,0.2-0.3,0.4-0.5l0,0l0,0l0,0l0,0l0,0l0,0l0,0l0,0l0,0l0,0l0,0
		l0,0l0,0l0,0l0,0l0,0l0,0l0,0l0,0l0,0l0,0l0,0l0,0l0,0l0,0l0,0l0,0l0,0l0,0l0,0l0,0l0,0l0,0l0,0c0.2-0.3,0.5-0.7,0.7-1l0,0l0,0l0,0
		l0,0l0,0l0,0l0,0l0,0l0,0l0,0l0,0l0,0l0,0l0,0l0,0l0,0l0,0l0,0l0,0l0,0l0,0l0,0l0.1-0.1l-0.8-0.6L53.8,47.7z M56.1,43.9
		c-0.4,0.7-0.7,1.3-1.1,1.9l0.9,0.5l0,0l0,0l0,0l0,0l0,0l0,0l0,0l0,0l0,0l0,0l0,0l0,0l0,0l0,0l0,0l0,0l0,0l0,0l0,0l0,0l0,0l0,0l0,0
		l0,0l0,0l0,0l0,0l0,0l0,0l0,0l0,0l0,0l0,0l0,0l0,0l0,0l0,0l0,0l0,0l0,0l0,0l0,0l0,0l0,0l0,0l0,0l0,0l0,0l0,0l0,0l0,0l0.1-0.1l0,0
		l0,0l0,0l0,0l0,0l0,0l0,0l0,0l0,0l0,0l0,0l0,0l0,0l0,0l0,0l0,0l0,0l0,0l0,0l0,0l0,0l0,0l0,0l0,0l0,0l0,0l0,0l0,0l0,0l0,0l0,0l0,0
		l0,0l0,0l0,0l0,0l0,0l0,0l0,0l0,0l0,0l0,0l0,0l0,0l0,0l0,0l0,0l0,0l0,0l0,0l0,0l0,0l0,0l0,0l0,0l0,0c0.2-0.3,0.4-0.7,0.6-1.1
		L56.1,43.9z M58,40L58,40c-0.3,0.7-0.6,1.4-0.9,2l0.9,0.4c0.3-0.7,0.6-1.3,0.9-2l0,0l0,0l0,0l0,0L58,40L58,40z M59.6,35.8
		c-0.2,0.7-0.5,1.4-0.8,2.1l0.9,0.4l0,0l0,0l0,0l0,0l0,0l0,0l0,0c0.1-0.2,0.1-0.3,0.2-0.5l0,0l0,0l0,0l0,0l0,0l0,0l0,0l0,0l0,0l0,0
		l0,0l0,0l0,0l0,0l0,0l0,0l0,0l0,0l0,0l0,0l0,0l0,0l0,0l0,0l0,0l0,0l0,0l0,0l0,0l0,0l0,0l0,0l0,0l0,0l0,0l0,0l0,0l0,0l0,0l0,0l0,0
		l0,0c0.1-0.4,0.3-0.8,0.4-1.2L59.6,35.8L59.6,35.8z M60.9,31.6c-0.2,0.7-0.4,1.4-0.6,2.1l1,0.3c0-0.1,0.1-0.3,0.1-0.4l0,0l0,0l0,0
		l0,0l0,0l0,0l0,0l0,0l0,0l0,0l0,0l0,0l0,0l0,0l0,0l0,0l0,0l0,0l0,0l0,0l0,0l0,0l0,0l0,0c0.1-0.5,0.3-1,0.4-1.6L60.9,31.6L60.9,31.6
		z M61.7,27.3c-0.1,0.7-0.2,1.4-0.3,2.2l1,0.2c0-0.2,0.1-0.4,0.1-0.5l0,0l0,0l0,0l0,0l0,0l0,0l0,0c0.1-0.6,0.2-1.1,0.2-1.6
		L61.7,27.3L61.7,27.3z M62.9,22.9h-1c0,0.7,0,1.4,0,2.2h1C62.9,24.4,62.9,23.6,62.9,22.9z M62,18.5l-0.9,0.4c0.2,0.6,0.4,1.3,0.5,2
		l1-0.2c-0.1-0.4-0.2-0.9-0.3-1.3l0,0l0,0l0,0l0,0l0,0l0,0l0,0l0,0l0,0l0,0l0,0l0,0l0,0l0,0l0,0l0,0l0,0l0,0l0,0l0,0l0,0l0,0l0,0
		l0,0l0,0l0,0l0,0l0,0l0,0l0,0l0,0l0,0l0,0l0,0l0,0C62.3,18.9,62.2,18.7,62,18.5L62,18.5z M59.1,15.2l-0.4,0.9c0,0,0.1,0,0.1,0.1
		c0.5,0.2,0.9,0.6,1.3,1l0.8-0.6c-0.4-0.5-0.9-0.9-1.5-1.2l0,0l0,0l0,0l0,0l0,0l0,0l0,0l0,0l0,0l0,0l0,0l0,0l0,0l0,0l0,0l0,0l0,0
		l0,0l0,0l0,0l0,0l0,0l0,0l0,0l0,0l0,0l0,0l0,0l0,0l0,0l0,0l0,0l0,0l0,0l0,0L59.1,15.2L59.1,15.2z"/>
	<rect x="49.2" y="22.1" transform="matrix(0.8374 -0.5466 0.5466 0.8374 -3.5772 32.6607)" class="st0" width="7.8" height="0.5"/>
	<rect x="49.9" y="23.1" transform="matrix(0.8417 -0.5399 0.5399 0.8417 -4.0921 32.7274)" class="st0" width="7.8" height="0.5"/>
	<rect x="50.2" y="24.2" transform="matrix(0.851 -0.5252 0.5252 0.851 -4.7239 32.28)" class="st0" width="8.6" height="0.5"/>
	<rect x="50.9" y="25.2" transform="matrix(0.8352 -0.5499 0.5499 0.8352 -4.8703 34.6075)" class="st0" width="8.9" height="0.5"/>
	<rect x="51.8" y="26.5" transform="matrix(0.8381 -0.5455 0.5455 0.8381 -5.5728 34.7828)" class="st0" width="8" height="0.5"/>
	<rect x="52.8" y="27.5" transform="matrix(0.8374 -0.5466 0.5466 0.8374 -5.9497 35.5041)" class="st0" width="7.8" height="0.5"/>
	<rect x="40.6" y="46.2" transform="matrix(0.8374 -0.5466 0.5466 0.8374 -18.1269 31.9309)" class="st0" width="8" height="0.5"/>
	<rect x="41.2" y="47.2" transform="matrix(0.8416 -0.5401 0.5401 0.8416 -18.4942 31.9289)" class="st0" width="8" height="0.5"/>
	
		<rect x="41.6" y="48.3" transform="matrix(0.8506 -0.5259 0.5259 0.8506 -18.6316 31.4795)" class="st0" width="8.9" height="0.5"/>
	
		<rect x="42.2" y="49.3" transform="matrix(0.8353 -0.5499 0.5499 0.8353 -19.5575 33.8677)" class="st0" width="9.1" height="0.5"/>
	<rect x="43.2" y="50.6" transform="matrix(0.838 -0.5456 0.5456 0.838 -20.0737 34.0714)" class="st0" width="8.3" height="0.5"/>
	<rect x="44.2" y="51.6" transform="matrix(0.8374 -0.5466 0.5466 0.8374 -20.4997 34.7746)" class="st0" width="8" height="0.5"/>
</g>
</svg>
