<?xml version="1.0" encoding="utf-8"?>
<!-- Generator: Adobe Illustrator 23.1.0, SVG Export Plug-In . SVG Version: 6.00 Build 0)  -->
<svg version="1.1" id="Layer_1" xmlns="http://www.w3.org/2000/svg" xmlns:xlink="http://www.w3.org/1999/xlink" x="0px" y="0px"
	 viewBox="0 0 64 64" style="enable-background:new 0 0 64 64;" xml:space="preserve">
<style type="text/css">
	.st0{fill:#FFFFFF;}
</style>
<g>
	<path class="st0" d="M10.5,28.4c0.8,0,1.5-0.3,2.1-0.9l7.6-7.6c0.4-0.4,0.4-1,0-1.4l0,0l-8.3-8.3c-0.4-0.4-1-0.4-1.4,0l0,0
		l-7.6,7.6c-1.2,1.2-1.2,3,0,4.2l5.5,5.5C9,28.1,9.7,28.4,10.5,28.4z M11.2,12.4l6.9,6.9L18,19.4H4.3c0,0,0-0.1,0.1-0.1L11.2,12.4z"
		/>
	<path class="st0" d="M18.3,25.8c0,1.4,1,2.6,2.4,2.6s2.6-1,2.6-2.4c0-0.1,0-0.1,0-0.2c0-1.2-1.4-3.4-1.9-4.1
		c-0.3-0.3-0.7-0.4-1.1-0.2c-0.1,0-0.1,0.1-0.2,0.2C19.8,22.4,18.3,24.7,18.3,25.8z"/>
	<circle class="st0" cx="34.2" cy="24.9" r="5.1"/>
	<path class="st0" d="M56.3,30.7c-3.2,0-5.8-2.6-5.8-5.8s2.6-5.8,5.8-5.8s5.8,2.6,5.8,5.8l0,0C62.1,28.1,59.5,30.7,56.3,30.7z
		 M56.3,20.6c-2.4,0-4.3,1.9-4.3,4.3s1.9,4.3,4.3,4.3c2.4,0,4.3-1.9,4.3-4.3l0,0C60.6,22.5,58.7,20.6,56.3,20.6L56.3,20.6z"/>
	<path class="st0" d="M47.8,55c-3.2,0-5.8-2.6-5.8-5.8s2.6-5.8,5.8-5.8s5.8,2.6,5.8,5.8l0,0C53.5,52.4,50.9,55,47.8,55z M47.8,44.9
		c-2.4,0-4.3,1.9-4.3,4.3c0,2.4,1.9,4.3,4.3,4.3c2.4,0,4.3-1.9,4.3-4.3l0,0C52.1,46.8,50.1,44.9,47.8,44.9L47.8,44.9z"/>
	<path class="st0" d="M24.1,53.7c-3.2,0-5.8-2.6-5.8-5.8s2.6-5.8,5.8-5.8s5.8,2.6,5.8,5.8C29.9,51.1,27.3,53.7,24.1,53.7z
		 M24.1,43.6c-2.4,0-4.3,1.9-4.3,4.3c0,2.4,1.9,4.3,4.3,4.3s4.3-1.9,4.3-4.3C28.3,45.5,26.5,43.6,24.1,43.6z"/>
	
		<rect x="19.8" y="33.8" transform="matrix(0.4376 -0.8992 0.8992 0.4376 -14.485 45.5984)" class="st0" width="18.9" height="1.1"/>
	<rect x="45" y="36.7" transform="matrix(0.4035 -0.915 0.915 0.4035 -2.4737 70.781)" class="st0" width="16" height="1.1"/>
	
		<rect x="34.2" y="24.1" transform="matrix(0.9996 -2.670152e-02 2.670152e-02 0.9996 -0.643 1.1477)" class="st0" width="17" height="1.1"/>
	<rect x="29.1" y="47.4" class="st0" width="13.7" height="1.1"/>
	<rect x="40.3" y="23.7" transform="matrix(0.8843 -0.4669 0.4669 0.8843 -11.4755 23.0669)" class="st0" width="1.1" height="22"/>
</g>
</svg>
