<?xml version="1.0" encoding="utf-8"?>
<!-- Generator: Adobe Illustrator 23.1.0, SVG Export Plug-In . SVG Version: 6.00 Build 0)  -->
<svg version="1.1" id="Layer_1" xmlns="http://www.w3.org/2000/svg" xmlns:xlink="http://www.w3.org/1999/xlink" x="0px" y="0px"
	 viewBox="0 0 64 64" style="enable-background:new 0 0 64 64;" xml:space="preserve">
<style type="text/css">
	.st0{fill:#FFFFFF;}
</style>
<g>
	<path class="st0" d="M9.2,27.4c0.8,0,1.6-0.3,2.2-0.9l7.8-7.8c0.4-0.4,0.4-1.1,0-1.5l0,0l-8.5-8.5c-0.4-0.4-1.1-0.4-1.5,0l-7.8,7.8
		c-1.2,1.2-1.2,3.1,0,4.3l5.7,5.7C7.7,27.1,8.4,27.4,9.2,27.4z M10,10.9l7.1,7.1L17,18.1H2.8c0,0,0-0.1,0.1-0.1L10,10.9z"/>
	<path class="st0" d="M17.4,24.7c-0.1,1.4,1,2.7,2.4,2.8s2.7-1,2.8-2.4c0-0.1,0-0.2,0-0.3c0-1.2-1.5-3.5-1.9-4.2
		c-0.3-0.4-0.8-0.4-1.1-0.2c-0.1,0-0.1,0.1-0.2,0.2C18.8,21.2,17.4,23.6,17.4,24.7z"/>
	<circle class="st0" cx="34.5" cy="24.3" r="5.2"/>
	<path class="st0" d="M57.3,30.3c-3.3,0-6-2.7-6-6s2.7-6,6-6s6,2.7,6,6S60.6,30.3,57.3,30.3z M57.3,19.8c-2.5,0-4.5,2-4.5,4.5
		s2,4.5,4.5,4.5s4.5-2,4.5-4.5S59.8,19.8,57.3,19.8z"/>
	<path class="st0" d="M48.5,55.4c-3.3,0-6-2.7-6-6s2.7-6,6-6s6,2.7,6,6l0,0C54.4,52.7,51.8,55.4,48.5,55.4z M48.5,44.9
		c-2.5,0-4.5,2-4.5,4.5s2,4.5,4.5,4.5s4.5-2,4.5-4.5l0,0C52.9,46.9,50.9,44.9,48.5,44.9z"/>
	<circle class="st0" cx="24" cy="48.1" r="5.2"/>
	
		<rect x="19.6" y="33.6" transform="matrix(0.4375 -0.8992 0.8992 0.4375 -14.1936 45.6471)" class="st0" width="19.5" height="1.1"/>
	<rect x="45.8" y="36.5" transform="matrix(0.4035 -0.915 0.915 0.4035 -1.7081 71.5766)" class="st0" width="16.5" height="1.1"/>
	
		<rect x="34.5" y="23.5" transform="matrix(0.9996 -2.670152e-02 2.670152e-02 0.9996 -0.628 1.1657)" class="st0" width="17.6" height="1.1"/>
	<rect x="29.3" y="47.6" class="st0" width="14.2" height="1.1"/>
	
		<rect x="40.8" y="23.1" transform="matrix(0.8843 -0.4669 0.4669 0.8843 -11.2801 23.2928)" class="st0" width="1.1" height="22.7"/>
	<path class="st0" d="M37.9,13.4L37.9,13.4c-0.5,0-1,0.1-1.4,0.2l0,0l0,0l0,0l0,0h-0.1l0,0l0,0l0,0l0,0l0,0l0,0l0,0l0,0
		c-0.2,0.1-0.4,0.1-0.6,0.2l0.4,1c0.6-0.2,1.3-0.4,1.9-0.4L37.9,13.4L37.9,13.4z M33.5,15c-0.7,0.4-1.3,0.9-1.9,1.4l0.7,0.8
		c0.6-0.5,1.2-0.9,1.8-1.3L33.5,15z M29.9,17.9c-0.5,0.5-1.1,1.1-1.6,1.7l0.8,0.7c0.5-0.6,1-1.2,1.5-1.7L29.9,17.9z M26.9,21.5
		c-0.5,0.6-0.9,1.2-1.4,1.9l0.9,0.6c0.4-0.6,0.9-1.3,1.3-1.9C27.7,22.1,26.9,21.5,26.9,21.5z M24.3,25.4c-0.4,0.7-0.8,1.3-1.2,2
		l0.9,0.5c0.4-0.7,0.8-1.4,1.1-2L24.3,25.4L24.3,25.4z M22,29.5L22,29.5L22,29.5L22,29.5L22,29.5L22,29.5L22,29.5L22,29.5L22,29.5
		L22,29.5L22,29.5L22,29.5L22,29.5L22,29.5v0.1l0,0l0,0l0,0l0,0l0,0l0,0l0,0l0,0l0,0l0,0l0,0l0,0l0,0l0,0l0,0l0,0l0,0l0,0l0,0l0,0
		l0,0l0,0l0,0l0,0l0,0l0,0l0,0l0,0l0,0v0.1l0,0v0.1l0,0l0,0l0,0v0.1l0,0l0,0l0,0l0,0l0,0l0,0l0,0l0,0l0,0l0,0l0,0l0,0l0,0l0,0l0,0
		l0,0l0,0l0,0l0,0l0,0l0,0l0,0l0,0l0,0l0,0l0,0l0,0l0,0l0,0l0,0l0,0l0,0l0,0l0,0l0,0l0,0l0,0l0,0l0,0l0,0l0,0l0,0l0,0l0,0l0,0l0,0
		l0,0l0,0l0,0l0,0l0,0l0,0l0,0l0,0l0,0l0,0l0,0l0,0l0,0l0,0l0,0l0,0l0,0l0,0c-0.1,0.3-0.3,0.6-0.4,0.9l0.9,0.4
		c0.3-0.7,0.6-1.4,1-2.1L22,29.5L22,29.5z M20.1,33.8c-0.3,0.7-0.6,1.5-0.8,2.2l1,0.3c0.3-0.7,0.5-1.4,0.8-2.2L20.1,33.8L20.1,33.8z
		 M18.5,38.2L18.5,38.2L18.5,38.2L18.5,38.2L18.5,38.2v0.1l0,0l0,0l0,0l0,0l0,0l0,0l0,0l0,0l0,0l0,0l0,0l0,0l0,0l0,0l0,0l0,0l0,0
		l0,0l0,0l0,0l0,0l0,0l0,0l0,0l0,0l0,0l0,0l0,0l0,0l0,0l0,0l0,0l0,0l0,0l0,0l0,0l0,0l0,0l0,0l0,0l0,0l0,0c-0.1,0.2-0.1,0.5-0.2,0.7
		l0,0l0,0l0,0l0,0l0,0l0,0l0,0l0,0l0,0l0,0l0,0l0,0l0,0l0,0l0,0l0,0l0,0l0,0l0,0l0,0l0,0l0,0l0,0l0,0l0,0l0,0l0,0l0,0l0,0v0.1l0,0
		l0,0l0,0l0,0l0,0l0,0l0,0l0,0l0,0l0,0l0,0l0,0l0,0l0,0l0,0l0,0l0,0l0,0l0,0l0,0l0,0l0,0l0,0l0,0l0,0l0,0l0,0l0,0l0,0l0,0
		c0,0.2-0.1,0.4-0.1,0.5l1,0.3c0.2-0.7,0.4-1.5,0.6-2.2l-1-0.3L18.5,38.2z M17.4,42.8c0,0.1,0,0.2-0.1,0.4l0,0l0,0l0,0l0,0l0,0l0,0
		l0,0l0,0l0,0l0,0l0,0c0,0.2-0.1,0.4-0.1,0.5l0,0l0,0l0,0l0,0v0.1l0,0l0,0l0,0l0,0l0,0l0,0l0,0c-0.1,0.4-0.1,0.7-0.2,1l1,0.1
		c0.1-0.7,0.2-1.5,0.4-2.3L17.4,42.8L17.4,42.8z M16.8,47.5L16.8,47.5L16.8,47.5L16.8,47.5L16.8,47.5c0,0.5,0,0.8,0,1.2l0,0l0,0l0,0
		l0,0l0,0l0,0l0,0v0.1l0,0l0,0l0,0c0,0.3,0,0.6,0,1h1c0-0.7,0-1.5,0-2.3H16.8z M17.9,52l-1,0.2c0,0.3,0.1,0.6,0.2,0.9l0,0l0,0l0,0
		l0,0l0,0l0,0l0,0l0,0l0,0l0,0l0,0l0,0l0,0l0,0l0,0l0,0l0,0l0,0v0.1l0,0l0,0l0,0l0,0l0,0l0,0l0,0l0,0l0,0l0,0l0,0l0,0l0,0l0,0l0,0
		l0,0l0,0l0,0l0,0l0,0l0,0l0,0l0,0l0,0l0,0l0,0l0,0l0,0l0,0l0,0l0,0l0,0l0,0l0,0l0,0l0,0l0,0l0,0l0,0l0,0l0,0l0,0l0,0l0,0v0.1l0,0
		c0,0.2,0.1,0.3,0.1,0.5l0,0l0,0l0,0l0,0l0,0l0,0l0,0l0,0l0,0l0,0l0,0l0,0l0,0l0,0l0,0l0,0l0,0l0,0l0,0l0,0l0,0l0,0l0,0l0,0l0,0l0,0
		l0,0l0,0l0,0l0,0l0,0l0,0l0,0l0,0l0,0l0,0l0,0l0,0l0,0l0,0l0,0l0,0l0,0l0,0l0,0l0,0l0,0l0,0l0,0l0,0l0,0l0,0l0,0l0,0l0,0l0,0l0,0
		l0,0l0,0l0,0l0,0l0,0l1-0.3c-0.2-0.7-0.4-1.4-0.5-2.1L17.9,52z M19.3,55.9l-0.8,0.6c0.4,0.6,1,1,1.6,1.3l0,0l0,0l0,0l0,0l0,0l0,0
		l0,0l0,0l0,0l0,0l0,0l0,0l0,0l0,0l0,0l0,0l0,0l0,0l0,0l0,0l0,0h0.1l0.4-1h-0.1C20.2,56.7,19.7,56.3,19.3,55.9L19.3,55.9z
		 M24.5,56.6c-0.6,0.3-1.3,0.5-1.9,0.6l0.1,1c0.7-0.1,1.4-0.3,2-0.5l0,0l0,0l0,0l0,0l0,0l0,0l0,0l0,0l0,0l0,0l0,0l0,0l0,0l0,0l0,0
		l0.1-0.1L24.5,56.6L24.5,56.6z M28.1,54.2c-0.6,0.5-1.1,1-1.7,1.4l0.6,0.9c0.6-0.4,1.3-0.9,1.8-1.5C28.8,55,28.1,54.2,28.1,54.2z
		 M31.2,50.9c-0.5,0.6-1,1.2-1.5,1.7l0.7,0.7c0.1-0.1,0.3-0.3,0.4-0.4l0,0l0,0l0,0l0,0l0,0l0,0l0,0l0,0l0,0l0,0l0,0l0,0l0,0l0,0l0,0
		l0,0l0,0l0,0l0,0l0,0l0,0l0,0l0,0l0,0l0,0l0,0l0,0l0,0l0,0l0,0l0,0l0,0l0,0l0,0l0,0l0,0l0,0l0,0l0,0l0,0l0,0l0,0l0,0l0,0l0,0l0,0
		l0.1-0.1l0,0c0.3-0.4,0.7-0.7,1-1.1L31.2,50.9L31.2,50.9z M34,47.2c-0.4,0.6-0.9,1.3-1.3,1.9l0.8,0.6c0.5-0.6,0.9-1.3,1.3-1.9
		C34.8,47.8,34,47.2,34,47.2z M36.3,43.3c-0.4,0.7-0.7,1.4-1.1,2l0.9,0.5c0.4-0.6,0.7-1.2,1.1-1.9l0,0l0,0l0,0l0,0l0,0l0,0l0,0l0,0
		l0,0l0,0l0,0l0,0l0,0l0,0l0,0l0,0l0,0l0,0l0,0L36.3,43.3L36.3,43.3z M38.3,39.1c0,0.1-0.1,0.2-0.1,0.3c-0.3,0.6-0.5,1.2-0.8,1.8
		l0.9,0.4c0.1-0.2,0.2-0.4,0.3-0.6l0,0l0,0l0,0l0,0l0,0l0,0l0,0l0,0l0,0l0,0l0,0l0,0l0,0l0,0l0,0l0,0l0,0l0,0l0,0l0,0l0,0l0,0l0,0
		l0,0l0,0l0,0l0,0l0,0l0,0l0,0l0,0l0,0l0,0l0,0l0,0l0,0l0,0l0,0l0,0l0,0v-0.1l0,0l0,0l0,0v-0.1l0,0l0,0l0,0v-0.1l0,0l0,0l0,0l0,0
		l0,0l0,0l0,0l0,0l0,0l0,0l0,0l0,0l0,0l0,0l0,0l0,0l0,0h0.1l0,0l0,0l0,0l0,0l0,0l0,0l0,0l0,0l0,0l0,0l0,0l0,0l0,0l0,0l0,0l0,0l0,0
		l0,0l0,0l0,0l0,0l0,0l0,0l0,0l0,0l0,0l0,0l0,0l0,0l0,0l0,0l0,0l0,0l0,0l0,0l0,0l0,0l0,0l0,0l0,0l0,0l0,0l0,0l0,0l0,0l0,0l0,0l0,0
		l0,0l0,0l0,0l0,0l0,0l0,0l0,0l0,0l0,0l0,0l0,0l0,0l0,0l0,0l0,0l0,0l0,0l0,0l0,0l0,0l0,0l0,0l0,0l0,0l0,0l0,0l0,0l0,0l0,0l0,0l0,0
		c0-0.1,0.1-0.1,0.1-0.2l0,0l0,0l0,0l0,0l0,0l0,0l0,0l0,0l0,0l0,0l0,0l0,0l0,0l0,0l0,0l0,0l-0.9-0.4L38.3,39.1z M40,34.8
		c-0.2,0.7-0.5,1.4-0.8,2.2l1,0.4c0.1-0.2,0.2-0.5,0.3-0.7l0,0l0,0l0,0l0,0l0,0l0,0l0,0l0,0l0,0l0,0l0,0l0,0l0,0l0,0l0,0l0,0l0,0
		l0,0l0,0l0,0l0,0l0,0l0,0l0,0l0,0l0,0l0,0l0,0l0,0l0,0l0,0l0,0l0,0l0,0l0,0l0,0l0,0l0,0l0,0c0.1-0.4,0.3-0.8,0.4-1.2L40,34.8
		L40,34.8z M41.2,30.4c-0.2,0.7-0.4,1.5-0.6,2.2l1,0.3c0-0.1,0.1-0.3,0.1-0.4l0,0l0,0l0,0l0,0l0,0l0,0l0,0l0,0l0,0l0,0l0,0l0,0l0,0
		l0,0l0,0l0,0l0,0l0,0l0,0l0,0l0,0l0,0l0,0l0,0l0,0l0,0l0,0l0,0l0,0l0,0l0,0l0,0c0.1-0.2,0.1-0.5,0.2-0.7l0,0l0,0l0,0l0,0l0,0l0,0
		l0,0l0,0l0,0l0,0l0,0l0,0l0,0l0,0l0,0l0,0l0,0l0,0l0,0l0,0l0,0l0,0l0,0l0,0l0,0l0,0l0,0l0,0l0,0l0,0l0,0l0,0l0,0l0,0l0,0l0,0l0,0
		l0,0l0,0l0,0l0,0l0,0v-0.1l0,0c0-0.2,0.1-0.3,0.1-0.5L41.2,30.4z M42.1,25.9c-0.1,0.7-0.2,1.5-0.3,2.3l1,0.2
		c0.1-0.6,0.2-1.1,0.3-1.7l0,0l0,0l0,0l0,0l0,0l0,0l0,0l0,0l0,0l0,0c0-0.2,0-0.4,0.1-0.6L42.1,25.9L42.1,25.9z M43.3,21.3l-1,0.1
		c0,0.7,0,1.5,0,2.2h1C43.3,22.9,43.3,22.1,43.3,21.3z M42.4,16.7l-1,0.4c0.3,0.7,0.5,1.3,0.6,2l1-0.2c-0.1-0.7-0.3-1.4-0.6-2.1l0,0
		l0,0l0,0V16.7L42.4,16.7L42.4,16.7L42.4,16.7L42.4,16.7L42.4,16.7L42.4,16.7L42.4,16.7L42.4,16.7L42.4,16.7L42.4,16.7L42.4,16.7
		L42.4,16.7L42.4,16.7L42.4,16.7L42.4,16.7L42.4,16.7L42.4,16.7L42.4,16.7L42.4,16.7L42.4,16.7L42.4,16.7L42.4,16.7L42.4,16.7
		L42.4,16.7L42.4,16.7z M39.1,13.6l-0.3,1c0.2,0,0.3,0.1,0.5,0.2c0.4,0.2,0.8,0.4,1.1,0.7l0.7-0.7c-0.1-0.1-0.2-0.2-0.2-0.2l0,0l0,0
		l0,0l0,0l0,0l0,0l0,0l0,0l0,0l0,0l0,0l0,0l0,0l0,0l0,0l0,0l0,0l0,0l0,0l0,0l0,0l0,0l0,0l0,0l0,0l0,0l0,0l0,0l0,0l0,0l0,0l0,0l0,0
		l0,0l0,0l0,0l0,0l0,0l0,0l0,0l0,0l0,0l0,0c-0.1-0.1-0.3-0.2-0.5-0.3l0,0l0,0l0,0l0,0l0,0l0,0l0,0l0,0l0,0l0,0h-0.1l0,0l0,0l0,0l0,0
		l0,0l0,0l0,0l0,0l0,0l0,0l0,0l0,0l0,0l0,0l0,0l0,0l0,0l0,0l0,0h-0.2l0,0l0,0l0,0l0,0l0,0l0,0l0,0l0,0l0,0l0,0l0,0l0,0l0,0l0,0l0,0
		l0,0l0,0l0,0l0,0l0,0l0,0l0,0l0,0l0,0l0,0l0,0l0,0l0,0l0,0l0,0l0,0l0,0l0,0l0,0l0,0l0,0l0,0l0,0l0,0l0,0l0,0l0,0l0,0l0,0l0,0l0,0
		l0,0l0,0l0,0l0,0l0,0l0,0l0,0l0,0l0,0l0,0l0,0l0,0l0,0l0,0l0,0l0,0l0,0l0,0l0,0l0,0l0,0l0,0l0,0l0,0l0,0l0,0l0,0l0,0l0,0l0,0l0,0
		l0,0l0,0l0,0l0,0l0,0l0,0l0,0l0,0l0,0l0,0l0,0L40,14l0,0l0,0l0,0l0,0l0,0l0,0l0,0l0,0l0,0C39.5,13.7,39.3,13.7,39.1,13.6L39.1,13.6
		z"/>
</g>
</svg>
