<?xml version="1.0" encoding="utf-8"?>
<!-- Generator: Adobe Illustrator 23.1.0, SVG Export Plug-In . SVG Version: 6.00 Build 0)  -->
<svg version="1.1" id="Layer_1" xmlns="http://www.w3.org/2000/svg" xmlns:xlink="http://www.w3.org/1999/xlink" x="0px" y="0px"
	 viewBox="0 0 64 64" style="enable-background:new 0 0 64 64;" xml:space="preserve">
<style type="text/css">
	.st0{fill:#FFFFFF;}
</style>
<g>
	<path class="st0" d="M10.8,27.1c0.8,0,1.5-0.3,2-0.8l7.4-7.4c0.4-0.4,0.4-1,0-1.4l0,0l-8-8c-0.4-0.4-1-0.4-1.4,0l0,0l-7.4,7.4
		c-1.1,1.1-1.1,2.9,0,4.1l5.4,5.4C9.3,26.8,10,27.1,10.8,27.1z M11.5,11.5l6.7,6.7l-0.1,0.1H4.7c0,0,0-0.1,0.1-0.1L11.5,11.5z"/>
	<path class="st0" d="M18.4,24.5c0,1.3,1,2.5,2.4,2.5s2.5-1,2.5-2.4c0-0.1,0-0.1,0-0.2c0-1.1-1.4-3.3-1.8-4
		c-0.2-0.3-0.7-0.4-1.1-0.2c-0.1,0-0.1,0.1-0.2,0.2C19.8,21.2,18.4,23.4,18.4,24.5z"/>
	<circle class="st0" cx="33.8" cy="23.6" r="4.9"/>
	<circle class="st0" cx="55.2" cy="23.6" r="4.9"/>
	<circle class="st0" cx="46.9" cy="47.2" r="4.9"/>
	<circle class="st0" cx="24" cy="46" r="4.9"/>
	
		<rect x="18.1" y="34.1" transform="matrix(0.3727 -0.9279 0.9279 0.3727 -13.9642 48.5993)" class="st0" width="21.8" height="1.1"/>
	
		<rect x="40.1" y="34.8" transform="matrix(0.4027 -0.9153 0.9153 0.4027 -1.4603 68.4488)" class="st0" width="23.3" height="1.1"/>
	<rect x="33.8" y="23" class="st0" width="21.4" height="1.1"/>
	<rect x="25.5" y="45.5" class="st0" width="21.4" height="1.1"/>
	
		<rect x="40.6" y="22.2" transform="matrix(0.8844 -0.4668 0.4668 0.8844 -11.5042 23.2258)" class="st0" width="1.1" height="25.2"/>
</g>
</svg>
