<?xml version="1.0" encoding="utf-8"?>
<!-- Generator: Adobe Illustrator 23.1.0, SVG Export Plug-In . SVG Version: 6.00 Build 0)  -->
<svg version="1.1" id="Layer_1" xmlns="http://www.w3.org/2000/svg" xmlns:xlink="http://www.w3.org/1999/xlink" x="0px" y="0px"
	 viewBox="0 0 64 64" style="enable-background:new 0 0 64 64;" xml:space="preserve">
<style type="text/css">
	.st0{fill:#010101;}
	.st1{fill:#FFFFFF;}
	.st2{opacity:0.57;fill:#FFFFFF;enable-background:new    ;}
</style>
<g>
	<g>
		<path class="st0" d="M58,32.9l0.2-4.1c0-0.3-0.2-0.7-0.4-0.8c-1.4-0.7-5.7-2.5-15.1-3c-11-0.4-18,1.7-20.6,2.9
			c-0.3,0.2-0.5,0.5-0.5,0.9l0.1,4.7c0,0,7.2-2.8,20-2.5c10.1,0.5,14.8,1.9,16.1,2.3c0.2,0.1,0.3,0,0.4-0.2C58,33,58,33,58,32.9z"/>
		<path class="st1" d="M59.1,28.6c0,0-0.2,9.2-0.8,9.9c1-0.4,1.8-1.3,2.1-2.4c0.5-1.7,0-5.9,0-5.9L59.1,28.6z"/>
		<path class="st1" d="M58,32.9l0.2-4.1c0-0.3-0.2-0.7-0.4-0.8c-1.4-0.7-5.7-2.5-15.1-3c-11-0.4-18,1.7-20.6,2.9
			c-0.3,0.2-0.5,0.5-0.5,0.9l0.1,4.7c0,0,7.2-2.8,20-2.5c10.1,0.5,14.8,1.9,16.1,2.3c0.2,0.1,0.3,0,0.4-0.2C58,33,58,33,58,32.9z"/>
		<rect x="31.2" y="40.7" class="st1" width="0.2" height="0.1"/>
		<polygon class="st1" points="50.8,43.5 41.5,35.2 41.8,34.8 51.1,43.2 		"/>
		<path class="st1" d="M41.8,34.2c0.4,0,0.8,0.2,1.1,0.4l1.5-2.1c-2.5-0.2-4.9-0.2-7.1-0.2l3.3,2.4C40.8,34.3,41.3,34.2,41.8,34.2z"
			/>
		<path class="st1" d="M30,38.9c0.7,0,1.3,0.4,1.6,1l8.3-3.4c0-0.2-0.1-0.2-0.1-0.4c0-0.3,0.1-0.7,0.2-0.9l-3.8-2.8h-0.6
			c-1.7,0.1-3.4,0.2-5.2,0.6L30,38.9L30,38.9z"/>
		<path class="st1" d="M29.4,39l0.7-6c-3.4,0.7-6.7,1.5-7.9,1.7c-0.2,0.1-0.4,0.2-0.4,0.5c-0.1,2,0.7,4,1.9,5.6l4.3-0.3
			C28.3,39.8,28.8,39.3,29.4,39z"/>
		<path class="st1" d="M43.6,36L43.6,36c0,1.1-0.8,1.9-1.8,1.9c-0.7,0-1.3-0.4-1.6-1l-8.3,3.4c0,0.2,0.1,0.2,0.1,0.4
			c0,1-0.8,1.8-1.8,1.9c-0.9,0-1.7-0.7-1.8-1.6l-4,0.2c0.9,0.9,2,1.6,3.2,2c2.8,0.9,5.8,1.4,8.8,1.3c1-0.2,2.6-3.1,3.6-3
			c0.8,0.2,1.6,0.7,2,1.4l3.7-6.4L43.6,36z"/>
		<path class="st1" d="M43.5,35.5l2.3,0.6l2-3.4c-0.9-0.2-1.9-0.2-2.8-0.2L43.2,35C43.4,35.1,43.4,35.2,43.5,35.5z"/>
		<path class="st1" d="M48.1,36.6l2.3-3.6c-0.5-0.1-1-0.2-1.5-0.2l-2,3.5L48.1,36.6z"/>
		<path class="st1" d="M46.6,36.7l-4,7l-0.2-0.2c0.2,0.3,0.6,0.6,0.9,0.7l4.6-7.3L46.6,36.7z"/>
		<path class="st1" d="M57.6,34.7c-0.4-0.2-1.1-0.3-2.3-0.6l-0.5,0.4L51.2,41l0.2,1c0.7,0.2,1.2,0.7,1.5,1.2c1.6-0.6,3-1.7,3.8-3.2
			c0.9-1.2,1.2-3.8,1.3-4.8C58,34.9,57.9,34.8,57.6,34.7z"/>
		<path class="st0" d="M50.8,41.9l-0.1-0.3L50.6,42C50.7,42,50.8,41.9,50.8,41.9z"/>
		<path class="st2" d="M54.9,33.9l-1.3-0.3C54,33.7,54.4,33.9,54.9,33.9L54.9,33.9z"/>
		<path class="st0" d="M54.9,33.9c-0.4-0.2-0.8-0.2-1.3-0.3L54.9,33.9L54.9,33.9z"/>
		<path class="st2" d="M54.9,33.9c-0.4-0.2-0.8-0.2-1.3-0.3L54.9,33.9L54.9,33.9z"/>
		<polygon class="st0" points="50.6,42 50.6,42 50.8,41.6 50.8,41.5 		"/>
		<polygon class="st2" points="50.6,42 50.6,42 50.8,41.6 50.8,41.5 		"/>
		<polygon class="st0" points="51.2,40.9 51.2,40.9 54.9,34.5 54.9,34.5 		"/>
		<polygon class="st2" points="51.2,40.9 51.2,40.9 54.9,34.5 54.9,34.5 		"/>
		<path class="st0" d="M48.4,36.7c0.2-1,1.1-1.7,2-1.5c0.5,0.1,1,0.4,1.2,0.9l3-2l-1.2-0.4c-0.9-0.2-1.8-0.4-2.9-0.6
			c-0.1,0-0.2,0-0.2-0.1L48,36.6L48.4,36.7z"/>
		<path class="st2" d="M48.4,36.7c0.2-1,1.1-1.7,2-1.5c0.5,0.1,1,0.4,1.2,0.9l3-2l-1.2-0.4c-0.9-0.2-1.8-0.4-2.9-0.6
			c-0.1,0-0.2,0-0.2-0.1L48,36.6L48.4,36.7z"/>
		<path class="st0" d="M52,37c0,0.7-0.4,1.5-1.1,1.7l0.3,2.1l3.6-6.4l-2.9,2C52,36.6,52,36.9,52,37z"/>
		<path class="st2" d="M52,37c0,0.7-0.4,1.5-1.1,1.7l0.3,2.1l3.6-6.4l-2.9,2C52,36.6,52,36.9,52,37z"/>
		<path class="st0" d="M43.9,44.5c1.7,0,3.6-0.2,5.3-0.4c-0.2-0.9,0.4-1.9,1.3-2.1l0.2-0.4l-0.4-2.7c-0.1,0-0.2,0-0.2,0
			c-0.9,0-1.7-0.7-1.8-1.7L47.7,37l-4.6,7.3c0.1,0.1,0.2,0.1,0.2,0.2C43.6,44.5,43.8,44.6,43.9,44.5z"/>
		<path class="st2" d="M43.9,44.5c1.7,0,3.6-0.2,5.3-0.4c-0.2-0.9,0.4-1.9,1.3-2.1l0.2-0.4l-0.4-2.7c-0.1,0-0.2,0-0.2,0
			c-0.9,0-1.7-0.7-1.8-1.7L47.7,37l-4.6,7.3c0.1,0.1,0.2,0.1,0.2,0.2C43.6,44.5,43.8,44.6,43.9,44.5z"/>
		<path class="st0" d="M46.6,36.7l-1.1-0.2l-3.8,6.4c0.2,0.2,0.2,0.3,0.3,0.4c0.1,0.2,0.2,0.2,0.2,0.2l0.3,0.2L46.6,36.7z"/>
		<path class="st2" d="M46.6,36.7l-1.1-0.2l-3.8,6.4c0.2,0.2,0.2,0.3,0.3,0.4c0.1,0.2,0.2,0.2,0.2,0.2l0.3,0.2L46.6,36.7z"/>
		<path class="st0" d="M46.8,36.3l2-3.5c-0.4-0.1-0.7-0.1-1.1-0.2l-2,3.4L46.8,36.3z"/>
		<path class="st2" d="M46.8,36.3l2-3.5c-0.4-0.1-0.7-0.1-1.1-0.2l-2,3.4L46.8,36.3z"/>
		<path class="st0" d="M30,42.6c1,0,1.8-0.8,1.8-1.9l0,0c0-0.2,0-0.2-0.1-0.4l8.4-3.4c0.4,0.9,1.6,1.2,2.5,0.7c0.7-0.3,1-0.9,1-1.6
			c0,0,0,0,0-0.1l2,0.5l0.2-0.4l-2.3-0.6c-0.1-0.2-0.2-0.4-0.2-0.6l1.7-2.5h-0.6l-1.5,2.1c-0.7-0.6-1.7-0.5-2.5,0.2l-3.3-2.4h-0.8
			l3.8,2.8c-0.2,0.3-0.2,0.7-0.2,0.9c0,0.2,0,0.2,0.1,0.4l-8.3,3.5c-0.3-0.7-0.9-1-1.6-1h-0.1l0.7-6c-0.2,0-0.3,0.1-0.5,0.1l-0.7,6
			c-0.7,0.2-1.2,0.8-1.2,1.5l-4.4,0.3c0.2,0.2,0.2,0.3,0.4,0.4L28,41C28.3,42,29,42.6,30,42.6z"/>
		<polygon class="st0" points="46.8,36.3 46.6,36.7 47.8,37 48.1,36.6 		"/>
		<path class="st1" d="M54.9,34.5l0.6-0.4L55.1,34L54.9,34.5z"/>
		<path class="st0" d="M50.8,41.9l-0.2-1l-0.4,0.7V42c-0.1,0-0.2,0-0.2,0.1l-1.2,2.1c1.2-0.2,2.3-0.5,3.4-0.9
			C52.1,42.4,51.5,42,50.8,41.9z"/>
		<path class="st1" d="M55.1,33.9L55.1,33.9h-0.2l0,0H55.1z"/>
		<polygon class="st1" points="50.8,41.5 50.8,41.6 51.2,40.9 51.2,40.9 		"/>
		<path class="st1" d="M54.9,33.9L54.7,34l0.3,0.2l-0.2,0.4h0.1l0.2-0.5L54.9,33.9z"/>
		<polygon class="st1" points="49.4,44.1 50.6,42 50.6,42 		"/>
		<path class="st0" d="M49.2,43.8c0,0.2,0,0.2,0.1,0.3h0.2l1.2-2.1C49.8,42,49.2,42.9,49.2,43.8z"/>
		<path class="st0" d="M50.8,38.8c0.9-0.4,1.4-1.3,1.1-2.3l2.9-2l0.2-0.4l-0.3-0.2l-3,2c-0.5-0.9-1.6-1.1-2.5-0.7
			c-0.4,0.2-0.7,0.7-0.9,1.2l-0.3-0.1l-0.2,0.4l0.6,0.2c0.1,0.9,0.9,1.7,1.8,1.7c0.1,0,0.2,0,0.2,0l0.4,2.8l0.4-0.7L50.8,38.8z"/>
		<polygon class="st0" points="45.8,36.1 45.5,36.5 46.6,36.7 46.8,36.3 		"/>
	</g>
	<g>
		<path class="st1" d="M5.4,23.3c-1.1,0-2,0.9-2,2.1l0,16.4c0,1.1,0.9,2.1,2,2.1h12.3c1.1,0,2.1-0.9,2.1-2.1V29.5l-6.2-6.2H5.4z
			 M12.6,30.5v-5.7l5.7,5.7H12.6z"/>
		<polygon class="st0" points="12.6,24.8 12.6,30.5 18.3,30.5 		"/>
	</g>
</g>
</svg>
