<?xml version="1.0" encoding="utf-8"?>
<!-- Generator: Adobe Illustrator 23.1.0, SVG Export Plug-In . SVG Version: 6.00 Build 0)  -->
<svg version="1.1" id="Layer_1" xmlns="http://www.w3.org/2000/svg" xmlns:xlink="http://www.w3.org/1999/xlink" x="0px" y="0px"
	 viewBox="0 0 64 64" style="enable-background:new 0 0 64 64;" xml:space="preserve">
<style type="text/css">
	.st0{fill:#FFFFFF;}
	.st1{fill:none;}
	.st2{fill:#010101;}
</style>
<g>
	<path class="st0" d="M31.5,23.2c-2.4,0-4.3-1.9-4.3-4.3s1.9-4.3,4.3-4.3s4.3,1.9,4.3,4.3S33.9,23.2,31.5,23.2z M31.5,16.1
		c-1.6,0-2.9,1.3-2.9,2.9c0,1.6,1.3,2.9,2.9,2.9s2.9-1.3,2.9-2.9C34.4,17.4,33.1,16.1,31.5,16.1z"/>
	<path class="st0" d="M27.1,38.4c-2.4,0-4.3-1.9-4.3-4.3c0-2.4,1.9-4.3,4.3-4.3s4.3,1.9,4.3,4.3l0,0C31.4,36.4,29.5,38.4,27.1,38.4z
		 M27.1,31.2c-1.6,0-2.9,1.3-2.9,2.9s1.3,2.9,2.9,2.9s2.9-1.3,2.9-2.9l0,0C30,32.5,28.7,31.2,27.1,31.2z"/>
	<path class="st0" d="M55.8,34.2c-1.6,0-2.9-1.3-2.9-2.9c0-1.6,1.3-2.9,2.9-2.9c1.6,0,2.9,1.3,2.9,2.9l0,0
		C58.7,32.9,57.4,34.2,55.8,34.2z M55.8,29c-1.3,0-2.3,1-2.3,2.3s1,2.3,2.3,2.3s2.3-1,2.3-2.3C58.1,30.1,57,29,55.8,29z"/>
	<path class="st0" d="M4.3,21.9c-1.6,0-2.9-1.3-2.9-2.9s1.3-2.9,2.9-2.9s2.9,1.3,2.9,2.9l0,0C7.2,20.6,5.9,21.9,4.3,21.9z M4.3,16.7
		C3,16.7,2,17.7,2,19s1,2.3,2.3,2.3s2.3-1,2.3-2.3S5.5,16.7,4.3,16.7z"/>
	<rect x="25" y="25.8" transform="matrix(0.3219 -0.9468 0.9468 0.3219 -5.338 45.8168)" class="st0" width="8.6" height="1.7"/>
	<path class="st1" d="M29.9,7.1c-9.1,0-16.9,6.5-18.6,15.4l1.4,0.8l-0.6,1l-1-0.6c-1.2,10.4,6.2,19.8,16.6,21s19.8-6.2,21-16.6l0,0
		V28C49.9,17.6,42.4,8.2,32,7.1C31.3,7.2,30.6,7.1,29.9,7.1z"/>
	<path class="st2" d="M48.7,28.3L48.7,28.3L48.7,28.3L48.7,28.3z"/>
	<path class="st0" d="M6.9,20.1l-0.6,1l3.5,2c0.1-0.4,0.1-0.8,0.2-1.2L6.9,20.1z"/>
	<path class="st2" d="M12.7,23.4l-1.4-0.8c-0.1,0.4-0.1,0.8-0.2,1.3l1,0.6L12.7,23.4z"/>
	<path class="st1" d="M24.4,32.6l-7.5-5c0.8,7.2,7.3,12.4,14.6,11.6c6.6-0.8,11.6-6.4,11.6-13l-8.8-4.7l0.8-1.5l7.8,4.2
		c-1.1-7.2-7.8-12.1-15-11c-6.2,1-10.8,6.1-11.1,12.4l8.6,5.7L24.4,32.6z"/>
	<path class="st0" d="M61.3,52.3L47.8,38.8l-0.7,0.7L46,38.4c6.6-8.8,4.7-21.3-4.1-27.8s-21.3-4.7-27.8,4.1S9.4,36,18.2,42.5
		c7,5.2,16.7,5.3,23.8,0l1.1,1.1l-0.7,0.7l13.4,13.6c1.5,1.5,4,1.5,5.6,0C62.9,56.3,62.9,53.8,61.3,52.3z M29.9,40.6
		c-7.8,0-14.2-6.2-14.5-14L14,25.7l1-1.4l0.5,0.3c0.8-8,8-13.8,16-13c7,0.7,12.4,6.3,13,13.3l2.7,1.4l-0.8,1.5l-1.8-1
		C44,34.6,37.6,40.6,29.9,40.6z"/>
	<path class="st0" d="M34.3,21.4l8.8,4.7l0,0c0-0.7-0.1-1.3-0.2-2l-7.8-4.2L34.3,21.4z"/>
	<path class="st0" d="M47.1,26.3l-2.7-1.4c0,0.4,0.1,0.8,0.1,1.2c0,0.3,0,0.5,0,0.8l1.8,1L47.1,26.3z"/>
	<path class="st0" d="M16.8,27.6l7.5,5l1-1.4l-8.6-5.7c0,0.2,0,0.4,0,0.6C16.7,26.6,16.8,27.1,16.8,27.6z"/>
	<path class="st0" d="M15.4,24.6l-0.5-0.3l-1,1.4l1.4,0.9c0-0.2,0-0.4,0-0.5C15.3,25.6,15.4,25.1,15.4,24.6z"/>
	<path class="st0" d="M53.4,29.3l-3.3-1.6c0,0.4-0.1,0.8-0.1,1.3l2.9,1.4L53.4,29.3z"/>
</g>
</svg>
