<?xml version="1.0" encoding="utf-8"?>
<!-- Generator: Adobe Illustrator 23.1.0, SVG Export Plug-In . SVG Version: 6.00 Build 0)  -->
<svg version="1.1" id="Layer_1" xmlns="http://www.w3.org/2000/svg" xmlns:xlink="http://www.w3.org/1999/xlink" x="0px" y="0px"
	 viewBox="0 0 64 64" style="enable-background:new 0 0 64 64;" xml:space="preserve">
<style type="text/css">
	.st0{fill:#010101;}
	.st1{fill:#FFFFFF;}
	.st2{opacity:0.57;fill:#FFFFFF;enable-background:new    ;}
</style>
<g>
	<g>
		<path class="st0" d="M58.9,36.8l0.2-5c0-0.4-0.2-0.8-0.5-1c-1.7-0.8-7-3.1-18.5-3.7c-13.4-0.5-22,2.1-25.2,3.6
			c-0.4,0.2-0.6,0.6-0.6,1.1l0.1,5.7c0,0,8.8-3.4,24.4-3.1c12.3,0.6,18.1,2.3,19.7,2.8c0.2,0.1,0.4,0,0.5-0.2
			C58.9,36.9,58.9,36.9,58.9,36.8z"/>
		<path class="st1" d="M60.2,31.6c0,0-0.3,11.2-1,12.1c1.2-0.5,2.2-1.6,2.6-2.9c0.6-2.1,0-7.2,0-7.2L60.2,31.6z"/>
		<path class="st1" d="M58.9,36.8l0.2-5c0-0.4-0.2-0.8-0.5-1c-1.7-0.8-7-3.1-18.5-3.7c-13.4-0.5-22,2.1-25.2,3.6
			c-0.4,0.2-0.6,0.6-0.6,1.1l0.1,5.7c0,0,8.8-3.4,24.4-3.1c12.3,0.6,18.1,2.3,19.7,2.8c0.2,0.1,0.4,0,0.5-0.2
			C58.9,36.9,58.9,36.9,58.9,36.8z"/>
		<rect x="26.1" y="46.4" class="st1" width="0.2" height="0.1"/>
		<polygon class="st1" points="50.1,49.8 38.7,39.7 39.1,39.2 50.4,49.4 		"/>
		<path class="st1" d="M39,38.4c0.5,0,1,0.2,1.4,0.5l1.8-2.6c-3.1-0.2-6-0.2-8.7-0.2l4,2.9C37.8,38.6,38.4,38.4,39,38.4z"/>
		<path class="st1" d="M24.6,44.2c0.8,0,1.6,0.5,2,1.2l10.2-4.2c0-0.2-0.1-0.3-0.1-0.5c0-0.4,0.1-0.8,0.3-1.1l-4.6-3.4h-0.7
			c-2.1,0.1-4.2,0.3-6.3,0.7L24.6,44.2L24.6,44.2z"/>
		<path class="st1" d="M23.9,44.3l0.9-7.3c-4.1,0.8-8.2,1.8-9.6,2.1c-0.3,0.1-0.5,0.3-0.5,0.6c-0.1,2.5,0.8,4.9,2.3,6.9l5.3-0.4
			C22.5,45.3,23.1,44.6,23.9,44.3z"/>
		<path class="st1" d="M41.3,40.6L41.3,40.6c0,1.3-1,2.3-2.2,2.3c-0.8,0-1.6-0.5-2-1.2l-10.2,4.2c0,0.2,0.1,0.3,0.1,0.5
			c0,1.2-1,2.2-2.2,2.3c-1.1,0-2.1-0.8-2.2-2L17.7,47c1.1,1.1,2.4,1.9,3.9,2.4c3.4,1.1,7.1,1.7,10.8,1.6c1.2-0.2,3.2-3.8,4.4-3.7
			c1,0.2,1.9,0.8,2.4,1.7l4.5-7.8L41.3,40.6z"/>
		<path class="st1" d="M41.1,40l2.8,0.7l2.4-4.1c-1.1-0.2-2.3-0.2-3.4-0.2l-2.1,3C41,39.5,41,39.7,41.1,40z"/>
		<path class="st1" d="M46.7,41.4l2.8-4.4c-0.6-0.1-1.2-0.2-1.8-0.3L45.2,41L46.7,41.4z"/>
		<path class="st1" d="M44.9,41.5L40,50l-0.3-0.2c0.3,0.4,0.7,0.7,1.1,0.9l5.6-8.9L44.9,41.5z"/>
		<path class="st1" d="M58.4,39c-0.5-0.2-1.4-0.4-2.8-0.7L55,38.8l-4.5,7.9l0.2,1.2c0.8,0.2,1.5,0.8,1.8,1.5c2-0.7,3.7-2.1,4.7-3.9
			c1.1-1.5,1.5-4.7,1.6-5.9C58.9,39.3,58.7,39.1,58.4,39z"/>
		<path class="st0" d="M50.1,47.8L50,47.4l-0.2,0.5C49.9,47.9,50,47.8,50.1,47.8z"/>
		<path class="st2" d="M55,38.1l-1.6-0.4C53.9,37.8,54.4,38,55,38.1L55,38.1z"/>
		<path class="st0" d="M55,38.1c-0.5-0.2-1-0.2-1.6-0.4L55,38.1L55,38.1z"/>
		<path class="st2" d="M55,38.1c-0.5-0.2-1-0.2-1.6-0.4L55,38.1L55,38.1z"/>
		<polygon class="st0" points="49.8,47.9 49.8,47.9 50,47.5 50,47.4 		"/>
		<polygon class="st2" points="49.8,47.9 49.8,47.9 50,47.5 50,47.4 		"/>
		<polygon class="st0" points="50.5,46.6 50.5,46.6 55,38.8 55,38.8 		"/>
		<polygon class="st2" points="50.5,46.6 50.5,46.6 55,38.8 55,38.8 		"/>
		<path class="st0" d="M47.1,41.5c0.2-1.2,1.4-2.1,2.5-1.8c0.6,0.1,1.2,0.5,1.5,1.1l3.7-2.5l-1.5-0.5c-1.1-0.2-2.2-0.5-3.6-0.7
			c-0.1,0-0.2,0-0.3-0.1l-2.8,4.4L47.1,41.5z"/>
		<path class="st2" d="M47.1,41.5c0.2-1.2,1.4-2.1,2.5-1.8c0.6,0.1,1.2,0.5,1.5,1.1l3.7-2.5l-1.5-0.5c-1.1-0.2-2.2-0.5-3.6-0.7
			c-0.1,0-0.2,0-0.3-0.1l-2.8,4.4L47.1,41.5z"/>
		<path class="st0" d="M51.5,41.9c0,0.9-0.5,1.8-1.4,2.1l0.4,2.6l4.4-7.8l-3.5,2.4C51.5,41.4,51.5,41.7,51.5,41.9z"/>
		<path class="st2" d="M51.5,41.9c0,0.9-0.5,1.8-1.4,2.1l0.4,2.6l4.4-7.8l-3.5,2.4C51.5,41.4,51.5,41.7,51.5,41.9z"/>
		<path class="st0" d="M41.6,51c2.1,0,4.4-0.2,6.5-0.5c-0.2-1.1,0.5-2.3,1.6-2.6l0.2-0.5l-0.5-3.3c-0.1,0-0.2,0-0.2,0
			c-1.1,0-2.1-0.9-2.2-2.1l-0.7-0.2l-5.6,8.9c0.1,0.1,0.2,0.1,0.3,0.2C41.3,51,41.5,51.1,41.6,51z"/>
		<path class="st2" d="M41.6,51c2.1,0,4.4-0.2,6.5-0.5c-0.2-1.1,0.5-2.3,1.6-2.6l0.2-0.5l-0.5-3.3c-0.1,0-0.2,0-0.2,0
			c-1.1,0-2.1-0.9-2.2-2.1l-0.7-0.2l-5.6,8.9c0.1,0.1,0.2,0.1,0.3,0.2C41.3,51,41.5,51.1,41.6,51z"/>
		<path class="st0" d="M44.9,41.5l-1.3-0.3L39,49c0.2,0.2,0.2,0.4,0.4,0.5c0.1,0.2,0.2,0.2,0.2,0.3L40,50L44.9,41.5z"/>
		<path class="st2" d="M44.9,41.5l-1.3-0.3L39,49c0.2,0.2,0.2,0.4,0.4,0.5c0.1,0.2,0.2,0.2,0.2,0.3L40,50L44.9,41.5z"/>
		<path class="st0" d="M45.2,41l2.4-4.3c-0.5-0.1-0.8-0.1-1.3-0.2l-2.4,4.1L45.2,41z"/>
		<path class="st2" d="M45.2,41l2.4-4.3c-0.5-0.1-0.8-0.1-1.3-0.2l-2.4,4.1L45.2,41z"/>
		<path class="st0" d="M24.6,48.7c1.2,0,2.2-1,2.2-2.3l0,0c0-0.2,0-0.3-0.1-0.5L37,41.7c0.5,1.1,1.9,1.5,3,0.9
			c0.8-0.4,1.2-1.1,1.2-2c0,0,0,0,0-0.1l2.4,0.6l0.3-0.5l-2.8-0.7c-0.1-0.2-0.2-0.5-0.3-0.7l2.1-3h-0.7l-1.8,2.6
			c-0.9-0.7-2.1-0.6-3,0.2l-4-2.9h-1l4.6,3.4c-0.2,0.4-0.3,0.8-0.3,1.1c0,0.2,0,0.3,0.1,0.5l-10.2,4.3c-0.4-0.8-1.1-1.2-2-1.2h-0.1
			l0.9-7.3c-0.2,0-0.4,0.1-0.6,0.1l-0.9,7.3c-0.8,0.3-1.5,1-1.5,1.8L17,46.5c0.2,0.2,0.3,0.4,0.5,0.5l4.7-0.3
			C22.5,47.9,23.4,48.7,24.6,48.7z"/>
		<polygon class="st0" points="45.2,41 44.9,41.5 46.4,41.9 46.7,41.4 		"/>
		<path class="st1" d="M55,38.8l0.7-0.5l-0.4-0.1L55,38.8z"/>
		<path class="st0" d="M50.1,47.8l-0.2-1.2l-0.5,0.9v0.4c-0.1,0-0.2,0-0.3,0.1l-1.5,2.6c1.5-0.2,2.8-0.6,4.2-1.1
			C51.6,48.5,50.9,47.9,50.1,47.8z"/>
		<path class="st1" d="M55.3,38.1L55.3,38.1L55,38.1l0,0L55.3,38.1z"/>
		<polygon class="st1" points="50,47.4 50,47.5 50.5,46.6 50.5,46.6 		"/>
		<path class="st1" d="M55,38.1l-0.2,0.1l0.4,0.2l-0.3,0.5H55l0.3-0.6L55,38.1z"/>
		<polygon class="st1" points="48.3,50.5 49.8,47.9 49.8,47.9 		"/>
		<path class="st0" d="M48.1,50.1c0,0.2,0,0.2,0.1,0.4h0.2l1.5-2.6C48.8,48,48.1,49,48.1,50.1z"/>
		<path class="st0" d="M50.1,44c1.1-0.5,1.7-1.6,1.3-2.8l3.5-2.4l0.3-0.5l-0.4-0.2l-3.7,2.5c-0.6-1.1-2-1.4-3.1-0.8
			c-0.5,0.3-0.9,0.9-1.1,1.5l-0.4-0.1l-0.3,0.5l0.7,0.2c0.1,1.1,1.1,2.1,2.2,2.1c0.1,0,0.2,0,0.2,0l0.5,3.4l0.5-0.9L50.1,44z"/>
		<polygon class="st0" points="43.9,40.7 43.6,41.2 44.9,41.5 45.2,41 		"/>
	</g>
	<g id="Page-1">
		<g transform="translate(0 -1)">
			<path id="Shape" class="st1" d="M8.3,36.9l0.5-0.2c0.5-0.2,0.8-0.6,0.6-1.1L3.9,15.9c-0.1-0.3-0.2-0.5-0.5-0.7
				C3.1,15,2.8,15,2.5,15.1H2.4c-0.6,0.2-0.9,0.8-0.8,1.4l5.5,19.8C7.4,36.8,7.8,37.1,8.3,36.9L8.3,36.9z"/>
			<path class="st1" d="M27.8,23.1c-1.8-0.8-3.4-2-4.8-3.3c-0.2-0.1-0.2-0.3-0.2-0.5c0.7-2.7,1.2-5.4,1.6-8.3
				c0.1-0.5-0.2-0.6-0.5-0.3C18.8,17,9.9,9.6,4.5,15.3c0.1,0.2,0.1,0.2,0.2,0.4l3.6,12.8c5.4-5.6,14.2,1.7,19.4-4.4
				C28,23.8,28,23.2,27.8,23.1L27.8,23.1z"/>
		</g>
	</g>
</g>
</svg>
