<?xml version="1.0" encoding="utf-8"?>
<!-- Generator: Adobe Illustrator 23.1.0, SVG Export Plug-In . SVG Version: 6.00 Build 0)  -->
<svg version="1.1" id="Layer_1" xmlns="http://www.w3.org/2000/svg" xmlns:xlink="http://www.w3.org/1999/xlink" x="0px" y="0px"
	 viewBox="0 0 64 64" style="enable-background:new 0 0 64 64;" xml:space="preserve">
<style type="text/css">
	.st0{fill:none;stroke:#FFFFFF;stroke-width:3.5;stroke-miterlimit:10;}
</style>
<g>
	<path class="st0" d="M10.5,13.8v36.2c0,3.8,2.1,7.2,5.4,8.9c3.1,1.5,12.2,2.7,15.1,2.7c4.7,0.1,18.3-0.9,23-4.6
		c2-1.5,3.1-3.9,3.1-6.4V13.8c0,0,0.3-9.4-23.3-9.2S10.5,13.8,10.5,13.8z"/>
	<path class="st0" d="M10.9,41.9c0,0,5.2,6.2,22.1,5.9s19.6-3.5,23.4-5.9"/>
	<path class="st0" d="M10.9,28.6c0,0,5.2,6.2,22.1,5.9c16.9-0.4,19.6-3.5,23.4-5.9"/>
	<path class="st0" d="M10.9,15.5c0,0,5.2,6.2,22.1,5.9c16.9-0.4,19.6-3.5,23.4-5.9"/>
</g>
</svg>
