<?xml version="1.0" encoding="utf-8"?>
<!-- Generator: Adobe Illustrator 23.1.0, SVG Export Plug-In . SVG Version: 6.00 Build 0)  -->
<svg version="1.1" id="Layer_1" xmlns="http://www.w3.org/2000/svg" xmlns:xlink="http://www.w3.org/1999/xlink" x="0px" y="0px"
	 viewBox="0 0 64 64" style="enable-background:new 0 0 64 64;" xml:space="preserve">
<style type="text/css">
	.st0{fill:none;stroke:#FFFFFF;stroke-width:1.5;stroke-miterlimit:10;}
	.st1{fill:none;stroke:#FFFFFF;stroke-miterlimit:10;}
	.st2{fill:none;stroke:#FFFFFF;stroke-width:2.5;stroke-miterlimit:10;}
</style>
<circle class="st0" cx="-36.4" cy="-94.9" r="1.6"/>
<line class="st0" x1="-35.4" y1="-93.6" x2="-26.6" y2="-84.9"/>
<g>
	<line class="st1" x1="-30.7" y1="-92.2" x2="-30.5" y2="-89.2"/>
	<line class="st1" x1="-34" y1="-89.4" x2="-30.6" y2="-88.5"/>
</g>
<g>
	<circle class="st2" cx="8" cy="33.4" r="5.4"/>
	<circle class="st2" cx="40.8" cy="33.8" r="4.7"/>
	<circle class="st2" cx="24.4" cy="16.6" r="4.7"/>
	<line class="st0" x1="21.1" y1="19.9" x2="11" y2="30.3"/>
	<line class="st0" x1="27.1" y1="18.8" x2="37.7" y2="30.3"/>
	<circle class="st2" cx="24.6" cy="50.3" r="4.7"/>
	<line class="st1" x1="21.5" y1="48.1" x2="11" y2="37.5"/>
	<line class="st1" x1="27.6" y1="48.1" x2="39" y2="36.6"/>
	<line class="st0" x1="54" y1="22.2" x2="43.8" y2="31.2"/>
	<circle class="st2" cx="57.2" cy="19.5" r="4.7"/>
	<g>
		<line class="st1" x1="12.6" y1="24.1" x2="16.7" y2="23.9"/>
		<line class="st1" x1="16.3" y1="28.7" x2="17.7" y2="24.1"/>
	</g>
	<g>
		<line class="st1" x1="33" y1="21.2" x2="33.3" y2="25.2"/>
		<line class="st1" x1="28.4" y1="24.6" x2="33.2" y2="25.8"/>
	</g>
	<g>
		<line class="st1" x1="45.4" y1="25.8" x2="49.5" y2="25.6"/>
		<line class="st1" x1="49.1" y1="30.6" x2="50.4" y2="25.7"/>
	</g>
</g>
</svg>
