<?xml version="1.0" encoding="utf-8"?>
<!-- Generator: Adobe Illustrator 23.1.0, SVG Export Plug-In . SVG Version: 6.00 Build 0)  -->
<svg version="1.1" id="Layer_1" xmlns="http://www.w3.org/2000/svg" xmlns:xlink="http://www.w3.org/1999/xlink" x="0px" y="0px"
	 viewBox="0 0 64 64" style="enable-background:new 0 0 64 64;" xml:space="preserve">
<style type="text/css">
	.st0{fill:#FFFFFF;}
</style>
<path class="st0" d="M3.7,31.8c-0.6,0.2-1,0.7-1,1.4c0.1,2.4,0.9,8.2,7,11.4c7.9,4,15.9,3,15.9,3s2.9-4.2,5.3-4.8
	c2.3-0.6,5.7,4.2,6,4.9c0,0,11.6-0.5,15.6-2.5c3.7-1.8,7.1-5.1,7.5-11.6c0.1-0.9-0.5-1.7-1.4-2C53.1,29.8,31.6,23.7,3.7,31.8z"/>
<path class="st0" d="M60.3,29l0.3-6.5c0-0.5-0.3-1-0.7-1.3c-2.2-1.1-9.1-4.1-24.2-4.8C18.2,15.7,7,19.1,2.8,21.1
	C2.3,21.4,2,21.9,2,22.5l0.1,7.4c0,0,11.5-4.4,31.9-4.1c16.1,0.8,23.7,3,25.7,3.7c0.2,0.1,0.5,0,0.6-0.3
	C60.3,29.1,60.3,29.1,60.3,29z"/>
</svg>
